%TF.GenerationSoftware,KiCad,Pcbnew,7.0.5-0*%
%TF.CreationDate,2023-11-18T10:12:58+00:00*%
%TF.ProjectId,Meadow Feather OLED,4d656164-6f77-4204-9665-617468657220,rev?*%
%TF.SameCoordinates,Original*%
%TF.FileFunction,Copper,L1,Top*%
%TF.FilePolarity,Positive*%
%FSLAX46Y46*%
G04 Gerber Fmt 4.6, Leading zero omitted, Abs format (unit mm)*
G04 Created by KiCad (PCBNEW 7.0.5-0) date 2023-11-18 10:12:58*
%MOMM*%
%LPD*%
G01*
G04 APERTURE LIST*
G04 Aperture macros list*
%AMRoundRect*
0 Rectangle with rounded corners*
0 $1 Rounding radius*
0 $2 $3 $4 $5 $6 $7 $8 $9 X,Y pos of 4 corners*
0 Add a 4 corners polygon primitive as box body*
4,1,4,$2,$3,$4,$5,$6,$7,$8,$9,$2,$3,0*
0 Add four circle primitives for the rounded corners*
1,1,$1+$1,$2,$3*
1,1,$1+$1,$4,$5*
1,1,$1+$1,$6,$7*
1,1,$1+$1,$8,$9*
0 Add four rect primitives between the rounded corners*
20,1,$1+$1,$2,$3,$4,$5,0*
20,1,$1+$1,$4,$5,$6,$7,0*
20,1,$1+$1,$6,$7,$8,$9,0*
20,1,$1+$1,$8,$9,$2,$3,0*%
G04 Aperture macros list end*
%TA.AperFunction,SMDPad,CuDef*%
%ADD10RoundRect,0.250000X0.350000X0.450000X-0.350000X0.450000X-0.350000X-0.450000X0.350000X-0.450000X0*%
%TD*%
%TA.AperFunction,ComponentPad*%
%ADD11R,1.700000X1.700000*%
%TD*%
%TA.AperFunction,ComponentPad*%
%ADD12O,1.700000X1.700000*%
%TD*%
%TA.AperFunction,SMDPad,CuDef*%
%ADD13RoundRect,0.237500X-0.237500X0.287500X-0.237500X-0.287500X0.237500X-0.287500X0.237500X0.287500X0*%
%TD*%
%TA.AperFunction,ComponentPad*%
%ADD14R,1.727200X1.727200*%
%TD*%
%TA.AperFunction,ComponentPad*%
%ADD15C,1.727200*%
%TD*%
%TA.AperFunction,SMDPad,CuDef*%
%ADD16R,0.900000X0.900000*%
%TD*%
%TA.AperFunction,SMDPad,CuDef*%
%ADD17RoundRect,0.237500X-0.300000X-0.237500X0.300000X-0.237500X0.300000X0.237500X-0.300000X0.237500X0*%
%TD*%
%TA.AperFunction,ViaPad*%
%ADD18C,0.800000*%
%TD*%
%TA.AperFunction,Conductor*%
%ADD19C,0.250000*%
%TD*%
G04 APERTURE END LIST*
D10*
%TO.P,R6,1*%
%TO.N,/+3V3*%
X82915000Y-98425000D03*
%TO.P,R6,2*%
%TO.N,/D05*%
X80915000Y-98425000D03*
%TD*%
D11*
%TO.P,ResetSwitch1,1,1*%
%TO.N,GND*%
X76200000Y-69850000D03*
D12*
%TO.P,ResetSwitch1,2,2*%
%TO.N,/~Reset*%
X78740000Y-69850000D03*
%TO.P,ResetSwitch1,3*%
X81280000Y-69850000D03*
%TD*%
D13*
%TO.P,D1,1,K*%
%TO.N,GND*%
X71120000Y-48020000D03*
%TO.P,D1,2,A*%
%TO.N,Net-(D1-A)*%
X71120000Y-49770000D03*
%TD*%
D14*
%TO.P,J1,1,RESET_L*%
%TO.N,/~Reset*%
X68580000Y-58420000D03*
D15*
%TO.P,J1,2,+3V3*%
%TO.N,/+3V3*%
X68580000Y-60960000D03*
%TO.P,J1,3,AREF*%
%TO.N,unconnected-(J1-AREF-Pad3)*%
X68580000Y-63500000D03*
%TO.P,J1,4,GND*%
%TO.N,GND*%
X68580000Y-66040000D03*
%TO.P,J1,5,A0*%
%TO.N,unconnected-(J1-A0-Pad5)*%
X68580000Y-68580000D03*
%TO.P,J1,6,A1*%
%TO.N,unconnected-(J1-A1-Pad6)*%
X68580000Y-71120000D03*
%TO.P,J1,7,A2*%
%TO.N,unconnected-(J1-A2-Pad7)*%
X68580000Y-73660000D03*
%TO.P,J1,8,A3*%
%TO.N,unconnected-(J1-A3-Pad8)*%
X68580000Y-76200000D03*
%TO.P,J1,9,A4*%
%TO.N,unconnected-(J1-A4-Pad9)*%
X68580000Y-78740000D03*
%TO.P,J1,10,A5*%
%TO.N,unconnected-(J1-A5-Pad10)*%
X68580000Y-81280000D03*
%TO.P,J1,11,SCK*%
%TO.N,unconnected-(J1-SCK-Pad11)*%
X68580000Y-83820000D03*
%TO.P,J1,12,MOSI*%
%TO.N,unconnected-(J1-MOSI-Pad12)*%
X68580000Y-86360000D03*
%TO.P,J1,13,MISO*%
%TO.N,unconnected-(J1-MISO-Pad13)*%
X68580000Y-88900000D03*
%TO.P,J1,14,D00/COM4_RX*%
%TO.N,unconnected-(J1-D00{slash}COM4_RX-Pad14)*%
X68580000Y-91440000D03*
%TO.P,J1,15,D01/COM4_TX*%
%TO.N,/D01*%
X68580000Y-93980000D03*
%TO.P,J1,16,D02*%
%TO.N,/D02*%
X68580000Y-96520000D03*
%TO.P,J1,17,D03/CAN_RX*%
%TO.N,/D03*%
X68580000Y-99060000D03*
%TO.P,J1,18,D04/CAN_TX*%
%TO.N,/D04*%
X68580000Y-101600000D03*
%TO.P,J1,19,D05*%
%TO.N,/D05*%
X88900000Y-101600000D03*
%TO.P,J1,20,D06*%
%TO.N,/D06*%
X88900000Y-99060000D03*
%TO.P,J1,21,D07/I2C_SDA*%
%TO.N,/I2C_SDA*%
X88900000Y-96520000D03*
%TO.P,J1,22,D08/I2C_SCK*%
%TO.N,/I2C_SCK*%
X88900000Y-93980000D03*
%TO.P,J1,23,D09*%
%TO.N,/D09*%
X88900000Y-91440000D03*
%TO.P,J1,24,D10*%
%TO.N,/D10*%
X88900000Y-88900000D03*
%TO.P,J1,25,D11*%
%TO.N,unconnected-(J1-D11-Pad25)*%
X88900000Y-86360000D03*
%TO.P,J1,26,D12/COM_TX*%
%TO.N,/Tx*%
X88900000Y-83820000D03*
%TO.P,J1,27,D13/COM1_RX*%
%TO.N,/Rx*%
X88900000Y-81280000D03*
%TO.P,J1,28,D14*%
%TO.N,unconnected-(J1-D14-Pad28)*%
X88900000Y-78740000D03*
%TO.P,J1,29,D15*%
%TO.N,unconnected-(J1-D15-Pad29)*%
X88900000Y-76200000D03*
%TO.P,J1,30,+5V*%
%TO.N,unconnected-(J1-+5V-Pad30)*%
X88900000Y-73660000D03*
%TO.P,J1,31,EN_+3V3*%
%TO.N,/+3V3*%
X88900000Y-71120000D03*
D14*
%TO.P,J1,32,+VBAT*%
%TO.N,unconnected-(J1-+VBAT-Pad32)*%
X88900000Y-68580000D03*
%TD*%
D16*
%TO.P,RN1,1,R1.1*%
%TO.N,/D01*%
X76510000Y-108910000D03*
%TO.P,RN1,2,R2.1*%
%TO.N,/D02*%
X77850000Y-108910000D03*
%TO.P,RN1,3,R3.1*%
%TO.N,/D03*%
X79170000Y-108910000D03*
%TO.P,RN1,4,R4.1*%
%TO.N,/D04*%
X80510000Y-108910000D03*
%TO.P,RN1,5,R4.2*%
%TO.N,Net-(D4-A)*%
X80510000Y-105910000D03*
%TO.P,RN1,6,R3.2*%
%TO.N,Net-(D3-A)*%
X79170000Y-105910000D03*
%TO.P,RN1,7,R2.2*%
%TO.N,Net-(D2-A)*%
X77850000Y-105910000D03*
%TO.P,RN1,8,R1.2*%
%TO.N,Net-(D1-A)*%
X76510000Y-105910000D03*
%TD*%
D11*
%TO.P,J2,1,Pin_1*%
%TO.N,/I2C_SDA*%
X74940000Y-117000000D03*
D12*
%TO.P,J2,2,Pin_2*%
%TO.N,/I2C_SCK*%
X77480000Y-117000000D03*
%TO.P,J2,3,Pin_3*%
%TO.N,/+3V3*%
X80020000Y-117000000D03*
%TO.P,J2,4,Pin_4*%
%TO.N,GND*%
X82560000Y-117000000D03*
%TD*%
D17*
%TO.P,C1,1*%
%TO.N,/D05*%
X81052500Y-94615000D03*
%TO.P,C1,2*%
%TO.N,GND*%
X82777500Y-94615000D03*
%TD*%
D13*
%TO.P,D4,1,K*%
%TO.N,GND*%
X86360000Y-48020000D03*
%TO.P,D4,2,A*%
%TO.N,Net-(D4-A)*%
X86360000Y-49770000D03*
%TD*%
D17*
%TO.P,C5,1*%
%TO.N,/~Reset*%
X74702500Y-94615000D03*
%TO.P,C5,2*%
%TO.N,GND*%
X76427500Y-94615000D03*
%TD*%
D13*
%TO.P,D3,1,K*%
%TO.N,GND*%
X81280000Y-48020000D03*
%TO.P,D3,2,A*%
%TO.N,Net-(D3-A)*%
X81280000Y-49770000D03*
%TD*%
D10*
%TO.P,R9,1*%
%TO.N,/+3V3*%
X76565000Y-98425000D03*
%TO.P,R9,2*%
%TO.N,/~Reset*%
X74565000Y-98425000D03*
%TD*%
D11*
%TO.P,COM1,1,Pin_1*%
%TO.N,GND*%
X87630000Y-60960000D03*
D12*
%TO.P,COM1,2,Pin_2*%
%TO.N,/Rx*%
X87630000Y-58420000D03*
%TO.P,COM1,3,Pin_3*%
%TO.N,/Tx*%
X87630000Y-55880000D03*
%TD*%
D13*
%TO.P,D2,1,K*%
%TO.N,GND*%
X76200000Y-48020000D03*
%TO.P,D2,2,A*%
%TO.N,Net-(D2-A)*%
X76200000Y-49770000D03*
%TD*%
D11*
%TO.P,D5,1,1*%
%TO.N,GND*%
X76200000Y-58420000D03*
D12*
%TO.P,D5,2,2*%
%TO.N,/D05*%
X78740000Y-58420000D03*
%TO.P,D5,3*%
X81280000Y-58420000D03*
%TD*%
D18*
%TO.N,/+3V3*%
X83185000Y-96520000D03*
X74295000Y-66675000D03*
X82550000Y-112395000D03*
X78740000Y-65405000D03*
X78105000Y-96520000D03*
%TO.N,/D01*%
X74295000Y-110490000D03*
%TO.N,/D02*%
X76835000Y-111125000D03*
%TO.N,/D03*%
X78740000Y-111760000D03*
%TO.N,/D04*%
X79375000Y-113030000D03*
%TD*%
D19*
%TO.N,/D05*%
X80915000Y-94752500D02*
X81052500Y-94615000D01*
X78740000Y-58420000D02*
X78740000Y-59690000D01*
X84090000Y-101600000D02*
X80915000Y-98425000D01*
X78740000Y-58420000D02*
X81280000Y-58420000D01*
X81052500Y-91413500D02*
X81052500Y-94615000D01*
X88900000Y-101600000D02*
X84090000Y-101600000D01*
X80915000Y-98425000D02*
X80915000Y-94752500D01*
X82931000Y-63881000D02*
X82931000Y-89535000D01*
X78740000Y-59690000D02*
X82931000Y-63881000D01*
X82931000Y-89535000D02*
X81052500Y-91413500D01*
%TO.N,/~Reset*%
X81280000Y-69850000D02*
X78740000Y-69850000D01*
X74565000Y-98425000D02*
X74702500Y-98287500D01*
X78740000Y-72390000D02*
X78740000Y-69850000D01*
X74702500Y-76427500D02*
X78740000Y-72390000D01*
X74702500Y-94615000D02*
X74702500Y-76427500D01*
X74702500Y-98287500D02*
X74702500Y-94615000D01*
%TO.N,Net-(D1-A)*%
X71120000Y-101600000D02*
X71120000Y-49770000D01*
X76510000Y-105910000D02*
X75430000Y-105910000D01*
X75430000Y-105910000D02*
X71120000Y-101600000D01*
%TO.N,Net-(D2-A)*%
X71755000Y-100965000D02*
X74295000Y-103505000D01*
X76200000Y-103505000D02*
X77850000Y-105155000D01*
X71755000Y-53340000D02*
X71755000Y-100965000D01*
X76200000Y-49770000D02*
X75325000Y-49770000D01*
X74295000Y-103505000D02*
X76200000Y-103505000D01*
X77850000Y-105155000D02*
X77850000Y-105910000D01*
X75325000Y-49770000D02*
X71755000Y-53340000D01*
%TO.N,Net-(D3-A)*%
X77470000Y-102870000D02*
X79170000Y-104570000D01*
X79170000Y-104570000D02*
X79170000Y-105910000D01*
X74930000Y-102870000D02*
X77470000Y-102870000D01*
X81280000Y-49770000D02*
X79614302Y-51435698D01*
X72390000Y-100330000D02*
X74930000Y-102870000D01*
X79614302Y-51435698D02*
X74295698Y-51435698D01*
X74295698Y-51435698D02*
X72390000Y-53341396D01*
X72390000Y-53341396D02*
X72390000Y-100330000D01*
%TO.N,Net-(D4-A)*%
X73025000Y-99695000D02*
X74930000Y-101600000D01*
X86360000Y-49770000D02*
X84058604Y-52071396D01*
X80510000Y-104640000D02*
X80510000Y-105910000D01*
X74296396Y-52071396D02*
X73025000Y-53342792D01*
X73025000Y-53342792D02*
X73025000Y-99695000D01*
X84058604Y-52071396D02*
X74296396Y-52071396D01*
X74930000Y-101600000D02*
X77470000Y-101600000D01*
X77470000Y-101600000D02*
X80510000Y-104640000D01*
%TO.N,/+3V3*%
X77470000Y-66675000D02*
X78740000Y-65405000D01*
X76835000Y-96520000D02*
X76565000Y-96790000D01*
X74295000Y-66675000D02*
X77470000Y-66675000D01*
X78105000Y-96520000D02*
X76835000Y-96520000D01*
X83185000Y-96520000D02*
X83185000Y-98155000D01*
X76565000Y-96790000D02*
X76565000Y-98425000D01*
X80020000Y-117000000D02*
X80020000Y-114925000D01*
X80020000Y-114925000D02*
X82550000Y-112395000D01*
X83185000Y-98155000D02*
X82915000Y-98425000D01*
%TO.N,/Rx*%
X85090000Y-59690000D02*
X86360000Y-58420000D01*
X88900000Y-81280000D02*
X85090000Y-77470000D01*
X86360000Y-58420000D02*
X87630000Y-58420000D01*
X85090000Y-77470000D02*
X85090000Y-59690000D01*
%TO.N,/Tx*%
X88900000Y-83820000D02*
X84455000Y-79375000D01*
X85725000Y-55880000D02*
X87630000Y-55880000D01*
X84455000Y-79375000D02*
X84455000Y-57150000D01*
X84455000Y-57150000D02*
X85725000Y-55880000D01*
%TO.N,/D01*%
X74295000Y-110490000D02*
X74930000Y-110490000D01*
X74930000Y-110490000D02*
X76510000Y-108910000D01*
%TO.N,/D02*%
X77850000Y-110110000D02*
X77787500Y-110172500D01*
X77787500Y-110172500D02*
X76835000Y-111125000D01*
X77850000Y-108910000D02*
X77850000Y-110110000D01*
%TO.N,/D03*%
X79170000Y-108910000D02*
X79170000Y-111330000D01*
X79170000Y-111330000D02*
X78740000Y-111760000D01*
%TO.N,/D04*%
X80510000Y-108910000D02*
X80510000Y-111895000D01*
X80510000Y-111895000D02*
X79375000Y-113030000D01*
%TD*%
%TA.AperFunction,Conductor*%
%TO.N,GND*%
G36*
X87578187Y-45733568D02*
G01*
X87578307Y-45733604D01*
X87628260Y-45733604D01*
X87631736Y-45733702D01*
X87659440Y-45735257D01*
X87745642Y-45740098D01*
X87933060Y-45751435D01*
X87939660Y-45752193D01*
X88080752Y-45776166D01*
X88239748Y-45805303D01*
X88245697Y-45806701D01*
X88387880Y-45847663D01*
X88388961Y-45847988D01*
X88538092Y-45894458D01*
X88543319Y-45896352D01*
X88681866Y-45953739D01*
X88683494Y-45954443D01*
X88731796Y-45976182D01*
X88823970Y-46017666D01*
X88828509Y-46019936D01*
X88960625Y-46092953D01*
X88962695Y-46094150D01*
X89093613Y-46173291D01*
X89097407Y-46175780D01*
X89221004Y-46263476D01*
X89223289Y-46265181D01*
X89295859Y-46322035D01*
X89343339Y-46359233D01*
X89346410Y-46361803D01*
X89369868Y-46382766D01*
X89459535Y-46462896D01*
X89462062Y-46465285D01*
X89485473Y-46488695D01*
X89569776Y-46572995D01*
X89572156Y-46575513D01*
X89673261Y-46688647D01*
X89675837Y-46691725D01*
X89769874Y-46811751D01*
X89771634Y-46814110D01*
X89859292Y-46937650D01*
X89861779Y-46941442D01*
X89890023Y-46988162D01*
X89940910Y-47072337D01*
X89942116Y-47074422D01*
X90015141Y-47206546D01*
X90017416Y-47211093D01*
X90080621Y-47351526D01*
X90081364Y-47353246D01*
X90138721Y-47491712D01*
X90140634Y-47496995D01*
X90187082Y-47646043D01*
X90187466Y-47647325D01*
X90228378Y-47789327D01*
X90229787Y-47795318D01*
X90258928Y-47954321D01*
X90282895Y-48095364D01*
X90283659Y-48102011D01*
X90295012Y-48289648D01*
X90301398Y-48403315D01*
X90301496Y-48406794D01*
X90301496Y-48455901D01*
X90301591Y-48456777D01*
X90336327Y-67274444D01*
X90316766Y-67341520D01*
X90264047Y-67387372D01*
X90194907Y-67397443D01*
X90131297Y-67368536D01*
X90124646Y-67362354D01*
X90121144Y-67358852D01*
X90005935Y-67272606D01*
X90005928Y-67272602D01*
X89871082Y-67222308D01*
X89871083Y-67222308D01*
X89811483Y-67215901D01*
X89811481Y-67215900D01*
X89811473Y-67215900D01*
X89811464Y-67215900D01*
X87988529Y-67215900D01*
X87988523Y-67215901D01*
X87928916Y-67222308D01*
X87794071Y-67272602D01*
X87794064Y-67272606D01*
X87678855Y-67358852D01*
X87678852Y-67358855D01*
X87592606Y-67474064D01*
X87592602Y-67474071D01*
X87542308Y-67608917D01*
X87535901Y-67668516D01*
X87535900Y-67668535D01*
X87535900Y-69491470D01*
X87535901Y-69491476D01*
X87542308Y-69551083D01*
X87592602Y-69685928D01*
X87592606Y-69685935D01*
X87678852Y-69801144D01*
X87678855Y-69801147D01*
X87794064Y-69887393D01*
X87794071Y-69887397D01*
X87908983Y-69930256D01*
X87964916Y-69972127D01*
X87989334Y-70037591D01*
X87974483Y-70105864D01*
X87956880Y-70130421D01*
X87819845Y-70279279D01*
X87819842Y-70279283D01*
X87696198Y-70468533D01*
X87605388Y-70675560D01*
X87549892Y-70894710D01*
X87531225Y-71119993D01*
X87531225Y-71120006D01*
X87549892Y-71345289D01*
X87605388Y-71564439D01*
X87696198Y-71771466D01*
X87819842Y-71960716D01*
X87819850Y-71960727D01*
X87929232Y-72079546D01*
X87972954Y-72127040D01*
X88151351Y-72265893D01*
X88179165Y-72280945D01*
X88228755Y-72330165D01*
X88243863Y-72398382D01*
X88219692Y-72463937D01*
X88179165Y-72499055D01*
X88151352Y-72514106D01*
X87972955Y-72652959D01*
X87972950Y-72652963D01*
X87819850Y-72819272D01*
X87819842Y-72819283D01*
X87696198Y-73008533D01*
X87605388Y-73215560D01*
X87549892Y-73434710D01*
X87531225Y-73659993D01*
X87531225Y-73660006D01*
X87549892Y-73885289D01*
X87605388Y-74104439D01*
X87696198Y-74311466D01*
X87819842Y-74500716D01*
X87819850Y-74500727D01*
X87972950Y-74667036D01*
X87972954Y-74667040D01*
X88151351Y-74805893D01*
X88179165Y-74820945D01*
X88228755Y-74870165D01*
X88243863Y-74938382D01*
X88219692Y-75003937D01*
X88179165Y-75039055D01*
X88151352Y-75054106D01*
X87972955Y-75192959D01*
X87972950Y-75192963D01*
X87819850Y-75359272D01*
X87819842Y-75359283D01*
X87696198Y-75548533D01*
X87605388Y-75755560D01*
X87549892Y-75974710D01*
X87531225Y-76199993D01*
X87531225Y-76200006D01*
X87549892Y-76425289D01*
X87605388Y-76644439D01*
X87696198Y-76851466D01*
X87819842Y-77040716D01*
X87819850Y-77040727D01*
X87972950Y-77207036D01*
X87972954Y-77207040D01*
X88151351Y-77345893D01*
X88179165Y-77360945D01*
X88228755Y-77410165D01*
X88243863Y-77478382D01*
X88219692Y-77543937D01*
X88179165Y-77579055D01*
X88151352Y-77594106D01*
X87972955Y-77732959D01*
X87972950Y-77732963D01*
X87819850Y-77899272D01*
X87819842Y-77899283D01*
X87696198Y-78088533D01*
X87605388Y-78295560D01*
X87549892Y-78514710D01*
X87531382Y-78738093D01*
X87506229Y-78803278D01*
X87449827Y-78844516D01*
X87380084Y-78848714D01*
X87320125Y-78815534D01*
X85751819Y-77247228D01*
X85718334Y-77185905D01*
X85715500Y-77159547D01*
X85715500Y-60000451D01*
X85735185Y-59933412D01*
X85751815Y-59912774D01*
X86397100Y-59267488D01*
X86458423Y-59234004D01*
X86528115Y-59238988D01*
X86584048Y-59280860D01*
X86586332Y-59284014D01*
X86591505Y-59291401D01*
X86591506Y-59291402D01*
X86591507Y-59291403D01*
X86713818Y-59413714D01*
X86747303Y-59475037D01*
X86742319Y-59544729D01*
X86700447Y-59600662D01*
X86669471Y-59617577D01*
X86537912Y-59666646D01*
X86537906Y-59666649D01*
X86422812Y-59752809D01*
X86422809Y-59752812D01*
X86336649Y-59867906D01*
X86336645Y-59867913D01*
X86286403Y-60002620D01*
X86286401Y-60002627D01*
X86280000Y-60062155D01*
X86280000Y-60710000D01*
X87196314Y-60710000D01*
X87170507Y-60750156D01*
X87130000Y-60888111D01*
X87130000Y-61031889D01*
X87170507Y-61169844D01*
X87196314Y-61210000D01*
X86280000Y-61210000D01*
X86280000Y-61857844D01*
X86286401Y-61917372D01*
X86286403Y-61917379D01*
X86336645Y-62052086D01*
X86336649Y-62052093D01*
X86422809Y-62167187D01*
X86422812Y-62167190D01*
X86537906Y-62253350D01*
X86537913Y-62253354D01*
X86672620Y-62303596D01*
X86672627Y-62303598D01*
X86732155Y-62309999D01*
X86732172Y-62310000D01*
X87380000Y-62310000D01*
X87380000Y-61395501D01*
X87487685Y-61444680D01*
X87594237Y-61460000D01*
X87665763Y-61460000D01*
X87772315Y-61444680D01*
X87880000Y-61395501D01*
X87880000Y-62310000D01*
X88527828Y-62310000D01*
X88527844Y-62309999D01*
X88587372Y-62303598D01*
X88587379Y-62303596D01*
X88722086Y-62253354D01*
X88722093Y-62253350D01*
X88837187Y-62167190D01*
X88837190Y-62167187D01*
X88923350Y-62052093D01*
X88923354Y-62052086D01*
X88973596Y-61917379D01*
X88973598Y-61917372D01*
X88979999Y-61857844D01*
X88980000Y-61857827D01*
X88980000Y-61210000D01*
X88063686Y-61210000D01*
X88089493Y-61169844D01*
X88130000Y-61031889D01*
X88130000Y-60888111D01*
X88089493Y-60750156D01*
X88063686Y-60710000D01*
X88980000Y-60710000D01*
X88980000Y-60062172D01*
X88979999Y-60062155D01*
X88973598Y-60002627D01*
X88973596Y-60002620D01*
X88923354Y-59867913D01*
X88923350Y-59867906D01*
X88837190Y-59752812D01*
X88837187Y-59752809D01*
X88722093Y-59666649D01*
X88722088Y-59666646D01*
X88590528Y-59617577D01*
X88534595Y-59575705D01*
X88510178Y-59510241D01*
X88525030Y-59441968D01*
X88546175Y-59413720D01*
X88668495Y-59291401D01*
X88804035Y-59097830D01*
X88903903Y-58883663D01*
X88965063Y-58655408D01*
X88985659Y-58420000D01*
X88965063Y-58184592D01*
X88903903Y-57956337D01*
X88804035Y-57742171D01*
X88803505Y-57741413D01*
X88668494Y-57548597D01*
X88501402Y-57381506D01*
X88501396Y-57381501D01*
X88315842Y-57251575D01*
X88272217Y-57196998D01*
X88265023Y-57127500D01*
X88296546Y-57065145D01*
X88315842Y-57048425D01*
X88356256Y-57020127D01*
X88501401Y-56918495D01*
X88668495Y-56751401D01*
X88804035Y-56557830D01*
X88903903Y-56343663D01*
X88965063Y-56115408D01*
X88985659Y-55880000D01*
X88965063Y-55644592D01*
X88903903Y-55416337D01*
X88804035Y-55202171D01*
X88803652Y-55201623D01*
X88668494Y-55008597D01*
X88501402Y-54841506D01*
X88501395Y-54841501D01*
X88307834Y-54705967D01*
X88307830Y-54705965D01*
X88307829Y-54705964D01*
X88093663Y-54606097D01*
X88093659Y-54606096D01*
X88093655Y-54606094D01*
X87865413Y-54544938D01*
X87865403Y-54544936D01*
X87630001Y-54524341D01*
X87629999Y-54524341D01*
X87394596Y-54544936D01*
X87394586Y-54544938D01*
X87166344Y-54606094D01*
X87166335Y-54606098D01*
X86952171Y-54705964D01*
X86952169Y-54705965D01*
X86758597Y-54841505D01*
X86591505Y-55008597D01*
X86456348Y-55201623D01*
X86401771Y-55245248D01*
X86354773Y-55254500D01*
X85807737Y-55254500D01*
X85792120Y-55252776D01*
X85792093Y-55253062D01*
X85784331Y-55252327D01*
X85716171Y-55254469D01*
X85714224Y-55254500D01*
X85685650Y-55254500D01*
X85684929Y-55254590D01*
X85678757Y-55255369D01*
X85672945Y-55255826D01*
X85626373Y-55257290D01*
X85626372Y-55257290D01*
X85607129Y-55262881D01*
X85588079Y-55266825D01*
X85568211Y-55269334D01*
X85568209Y-55269335D01*
X85524884Y-55286488D01*
X85519357Y-55288380D01*
X85474610Y-55301381D01*
X85474609Y-55301382D01*
X85457367Y-55311579D01*
X85439899Y-55320137D01*
X85421269Y-55327513D01*
X85421267Y-55327514D01*
X85383576Y-55354898D01*
X85378694Y-55358105D01*
X85338579Y-55381830D01*
X85324408Y-55396000D01*
X85309623Y-55408628D01*
X85293412Y-55420407D01*
X85263709Y-55456310D01*
X85259777Y-55460631D01*
X84071208Y-56649199D01*
X84058951Y-56659020D01*
X84059134Y-56659241D01*
X84053122Y-56664214D01*
X84006432Y-56713932D01*
X84005079Y-56715329D01*
X83984889Y-56735519D01*
X83984877Y-56735532D01*
X83980621Y-56741017D01*
X83976837Y-56745447D01*
X83944937Y-56779418D01*
X83944936Y-56779420D01*
X83935284Y-56796976D01*
X83924610Y-56813226D01*
X83912329Y-56829061D01*
X83912324Y-56829068D01*
X83893815Y-56871838D01*
X83891245Y-56877084D01*
X83868803Y-56917906D01*
X83863822Y-56937307D01*
X83857521Y-56955710D01*
X83849562Y-56974102D01*
X83849561Y-56974105D01*
X83842271Y-57020127D01*
X83841087Y-57025846D01*
X83829501Y-57070972D01*
X83829500Y-57070982D01*
X83829500Y-57091016D01*
X83827973Y-57110415D01*
X83824840Y-57130194D01*
X83824840Y-57130195D01*
X83829225Y-57176583D01*
X83829500Y-57182421D01*
X83829500Y-79292255D01*
X83827775Y-79307872D01*
X83828061Y-79307899D01*
X83827326Y-79315666D01*
X83829469Y-79383846D01*
X83829500Y-79385793D01*
X83829500Y-79414343D01*
X83829501Y-79414360D01*
X83830368Y-79421231D01*
X83830826Y-79427050D01*
X83832290Y-79473624D01*
X83832291Y-79473627D01*
X83837880Y-79492867D01*
X83841824Y-79511911D01*
X83844336Y-79531791D01*
X83861490Y-79575119D01*
X83863382Y-79580647D01*
X83876381Y-79625388D01*
X83886580Y-79642634D01*
X83895138Y-79660103D01*
X83902514Y-79678732D01*
X83929898Y-79716423D01*
X83933106Y-79721307D01*
X83956827Y-79761416D01*
X83956833Y-79761424D01*
X83970990Y-79775580D01*
X83983628Y-79790376D01*
X83995405Y-79806586D01*
X83995406Y-79806587D01*
X84031309Y-79836288D01*
X84035620Y-79840210D01*
X86671473Y-82476064D01*
X87548612Y-83353203D01*
X87582097Y-83414526D01*
X87581137Y-83471323D01*
X87549892Y-83594708D01*
X87531225Y-83819993D01*
X87531225Y-83820006D01*
X87549892Y-84045289D01*
X87605388Y-84264439D01*
X87696198Y-84471466D01*
X87819842Y-84660716D01*
X87819850Y-84660727D01*
X87972950Y-84827036D01*
X87972954Y-84827040D01*
X88151351Y-84965893D01*
X88179165Y-84980945D01*
X88228755Y-85030165D01*
X88243863Y-85098382D01*
X88219692Y-85163937D01*
X88179165Y-85199055D01*
X88151352Y-85214106D01*
X87972955Y-85352959D01*
X87972950Y-85352963D01*
X87819850Y-85519272D01*
X87819842Y-85519283D01*
X87696198Y-85708533D01*
X87605388Y-85915560D01*
X87549892Y-86134710D01*
X87531225Y-86359993D01*
X87531225Y-86360006D01*
X87549892Y-86585289D01*
X87605388Y-86804439D01*
X87696198Y-87011466D01*
X87819842Y-87200716D01*
X87819850Y-87200727D01*
X87972950Y-87367036D01*
X87972954Y-87367040D01*
X88151351Y-87505893D01*
X88179165Y-87520945D01*
X88228755Y-87570165D01*
X88243863Y-87638382D01*
X88219692Y-87703937D01*
X88179165Y-87739055D01*
X88151352Y-87754106D01*
X87972955Y-87892959D01*
X87972950Y-87892963D01*
X87819850Y-88059272D01*
X87819842Y-88059283D01*
X87696198Y-88248533D01*
X87605388Y-88455560D01*
X87549892Y-88674710D01*
X87531225Y-88899993D01*
X87531225Y-88900006D01*
X87549892Y-89125289D01*
X87605388Y-89344439D01*
X87696198Y-89551466D01*
X87819842Y-89740716D01*
X87819850Y-89740727D01*
X87972950Y-89907036D01*
X87972954Y-89907040D01*
X88151351Y-90045893D01*
X88179165Y-90060945D01*
X88228755Y-90110165D01*
X88243863Y-90178382D01*
X88219692Y-90243937D01*
X88179165Y-90279055D01*
X88151352Y-90294106D01*
X87972955Y-90432959D01*
X87972950Y-90432963D01*
X87819850Y-90599272D01*
X87819842Y-90599283D01*
X87696198Y-90788533D01*
X87605388Y-90995560D01*
X87549892Y-91214710D01*
X87531225Y-91439993D01*
X87531225Y-91440006D01*
X87549892Y-91665289D01*
X87605388Y-91884439D01*
X87696198Y-92091466D01*
X87819842Y-92280716D01*
X87819850Y-92280727D01*
X87972950Y-92447036D01*
X87972954Y-92447040D01*
X88151351Y-92585893D01*
X88179165Y-92600945D01*
X88228755Y-92650165D01*
X88243863Y-92718382D01*
X88219692Y-92783937D01*
X88179165Y-92819055D01*
X88151352Y-92834106D01*
X87972955Y-92972959D01*
X87972950Y-92972963D01*
X87819850Y-93139272D01*
X87819842Y-93139283D01*
X87696198Y-93328533D01*
X87605388Y-93535560D01*
X87549892Y-93754710D01*
X87531225Y-93979993D01*
X87531225Y-93980006D01*
X87549892Y-94205289D01*
X87605388Y-94424439D01*
X87696198Y-94631466D01*
X87819842Y-94820716D01*
X87819850Y-94820727D01*
X87972950Y-94987036D01*
X87972954Y-94987040D01*
X88151351Y-95125893D01*
X88151353Y-95125894D01*
X88151356Y-95125896D01*
X88151362Y-95125899D01*
X88179163Y-95140944D01*
X88228754Y-95190161D01*
X88243864Y-95258378D01*
X88219694Y-95323934D01*
X88179167Y-95359052D01*
X88151361Y-95374100D01*
X88151353Y-95374105D01*
X87972955Y-95512959D01*
X87972950Y-95512963D01*
X87819850Y-95679272D01*
X87819842Y-95679283D01*
X87696198Y-95868533D01*
X87605388Y-96075560D01*
X87549892Y-96294710D01*
X87531225Y-96519993D01*
X87531225Y-96520006D01*
X87549892Y-96745289D01*
X87605388Y-96964439D01*
X87696198Y-97171466D01*
X87819842Y-97360716D01*
X87819850Y-97360727D01*
X87956747Y-97509435D01*
X87972954Y-97527040D01*
X88151351Y-97665893D01*
X88179165Y-97680945D01*
X88228755Y-97730165D01*
X88243863Y-97798382D01*
X88219692Y-97863937D01*
X88179165Y-97899055D01*
X88151352Y-97914106D01*
X87972955Y-98052959D01*
X87972950Y-98052963D01*
X87819850Y-98219272D01*
X87819842Y-98219283D01*
X87696198Y-98408533D01*
X87605388Y-98615560D01*
X87549892Y-98834710D01*
X87531225Y-99059993D01*
X87531225Y-99060006D01*
X87549892Y-99285289D01*
X87605388Y-99504439D01*
X87696198Y-99711466D01*
X87819842Y-99900716D01*
X87819850Y-99900727D01*
X87972950Y-100067036D01*
X87972954Y-100067040D01*
X88151351Y-100205893D01*
X88179165Y-100220945D01*
X88228755Y-100270165D01*
X88243863Y-100338382D01*
X88219692Y-100403937D01*
X88179165Y-100439055D01*
X88151352Y-100454106D01*
X87972955Y-100592959D01*
X87972950Y-100592963D01*
X87819850Y-100759272D01*
X87819842Y-100759283D01*
X87715937Y-100918322D01*
X87662791Y-100963678D01*
X87612129Y-100974500D01*
X84400452Y-100974500D01*
X84333413Y-100954815D01*
X84312771Y-100938181D01*
X83211770Y-99837180D01*
X83178285Y-99775857D01*
X83183269Y-99706165D01*
X83225141Y-99650232D01*
X83290605Y-99625815D01*
X83299451Y-99625499D01*
X83315002Y-99625499D01*
X83315008Y-99625499D01*
X83417797Y-99614999D01*
X83584334Y-99559814D01*
X83733656Y-99467712D01*
X83857712Y-99343656D01*
X83949814Y-99194334D01*
X84004999Y-99027797D01*
X84015500Y-98925009D01*
X84015499Y-97924992D01*
X84014386Y-97914100D01*
X84004999Y-97822203D01*
X84004998Y-97822200D01*
X83949814Y-97655666D01*
X83857712Y-97506344D01*
X83846819Y-97495451D01*
X83813334Y-97434128D01*
X83810500Y-97407770D01*
X83810500Y-97218687D01*
X83830185Y-97151648D01*
X83842350Y-97135715D01*
X83868231Y-97106971D01*
X83917533Y-97052216D01*
X84012179Y-96888284D01*
X84070674Y-96708256D01*
X84090460Y-96520000D01*
X84070674Y-96331744D01*
X84012179Y-96151716D01*
X83917533Y-95987784D01*
X83790871Y-95847112D01*
X83790870Y-95847111D01*
X83637734Y-95735851D01*
X83637732Y-95735850D01*
X83511054Y-95679448D01*
X83457818Y-95634197D01*
X83437497Y-95567348D01*
X83456543Y-95500124D01*
X83496395Y-95460630D01*
X83538037Y-95434945D01*
X83659944Y-95313038D01*
X83659947Y-95313034D01*
X83750448Y-95166311D01*
X83750453Y-95166300D01*
X83804680Y-95002652D01*
X83814999Y-94901654D01*
X83815000Y-94901641D01*
X83815000Y-94865000D01*
X82651500Y-94865000D01*
X82584461Y-94845315D01*
X82538706Y-94792511D01*
X82527500Y-94741000D01*
X82527500Y-94365000D01*
X83027499Y-94365000D01*
X83814999Y-94365000D01*
X83814999Y-94328360D01*
X83814998Y-94328345D01*
X83804680Y-94227347D01*
X83750453Y-94063699D01*
X83750448Y-94063688D01*
X83659947Y-93916965D01*
X83659944Y-93916961D01*
X83538038Y-93795055D01*
X83538034Y-93795052D01*
X83391311Y-93704551D01*
X83391300Y-93704546D01*
X83227652Y-93650319D01*
X83126654Y-93640000D01*
X83027500Y-93640000D01*
X83027499Y-94365000D01*
X82527500Y-94365000D01*
X82527500Y-93639999D01*
X82428360Y-93640000D01*
X82428344Y-93640001D01*
X82327347Y-93650319D01*
X82163699Y-93704546D01*
X82163688Y-93704551D01*
X82016965Y-93795052D01*
X82003032Y-93808985D01*
X81941708Y-93842468D01*
X81872016Y-93837482D01*
X81827672Y-93808982D01*
X81813350Y-93794660D01*
X81813346Y-93794657D01*
X81736903Y-93747506D01*
X81690178Y-93695558D01*
X81678000Y-93641968D01*
X81678000Y-91723952D01*
X81697685Y-91656913D01*
X81714319Y-91636271D01*
X82474413Y-90876177D01*
X83314788Y-90035801D01*
X83327042Y-90025986D01*
X83326859Y-90025764D01*
X83332868Y-90020791D01*
X83332877Y-90020786D01*
X83379607Y-89971022D01*
X83380846Y-89969743D01*
X83401120Y-89949471D01*
X83405379Y-89943978D01*
X83409152Y-89939561D01*
X83441062Y-89905582D01*
X83450713Y-89888024D01*
X83461396Y-89871761D01*
X83473673Y-89855936D01*
X83492185Y-89813153D01*
X83494738Y-89807941D01*
X83517197Y-89767092D01*
X83522180Y-89747680D01*
X83528481Y-89729280D01*
X83536437Y-89710896D01*
X83543729Y-89664852D01*
X83544906Y-89659171D01*
X83556500Y-89614019D01*
X83556500Y-89593982D01*
X83558027Y-89574582D01*
X83561160Y-89554804D01*
X83556775Y-89508415D01*
X83556500Y-89502577D01*
X83556500Y-63963741D01*
X83558223Y-63948129D01*
X83557938Y-63948103D01*
X83558672Y-63940335D01*
X83556530Y-63872170D01*
X83556499Y-63870220D01*
X83556500Y-63841650D01*
X83555629Y-63834758D01*
X83555172Y-63828946D01*
X83553709Y-63782372D01*
X83548122Y-63763144D01*
X83544174Y-63744084D01*
X83541801Y-63725293D01*
X83541664Y-63724208D01*
X83541663Y-63724206D01*
X83541663Y-63724204D01*
X83524512Y-63680887D01*
X83522619Y-63675358D01*
X83509618Y-63630609D01*
X83509616Y-63630606D01*
X83499423Y-63613371D01*
X83490861Y-63595894D01*
X83483487Y-63577270D01*
X83483486Y-63577268D01*
X83456079Y-63539545D01*
X83452888Y-63534686D01*
X83429172Y-63494583D01*
X83429165Y-63494574D01*
X83415006Y-63480415D01*
X83402368Y-63465619D01*
X83390594Y-63449413D01*
X83354688Y-63419709D01*
X83350376Y-63415786D01*
X79587490Y-59652899D01*
X79554005Y-59591576D01*
X79558989Y-59521884D01*
X79600861Y-59465951D01*
X79604036Y-59463651D01*
X79611401Y-59458495D01*
X79778495Y-59291401D01*
X79908424Y-59105842D01*
X79963002Y-59062217D01*
X80032500Y-59055023D01*
X80094855Y-59086546D01*
X80111575Y-59105842D01*
X80241500Y-59291395D01*
X80241505Y-59291401D01*
X80408599Y-59458495D01*
X80504913Y-59525935D01*
X80602165Y-59594032D01*
X80602167Y-59594033D01*
X80602170Y-59594035D01*
X80816337Y-59693903D01*
X81044592Y-59755063D01*
X81215319Y-59770000D01*
X81279999Y-59775659D01*
X81280000Y-59775659D01*
X81280001Y-59775659D01*
X81344681Y-59770000D01*
X81515408Y-59755063D01*
X81743663Y-59693903D01*
X81957830Y-59594035D01*
X82151401Y-59458495D01*
X82318495Y-59291401D01*
X82454035Y-59097830D01*
X82553903Y-58883663D01*
X82615063Y-58655408D01*
X82635659Y-58420000D01*
X82615063Y-58184592D01*
X82553903Y-57956337D01*
X82454035Y-57742171D01*
X82453505Y-57741413D01*
X82318494Y-57548597D01*
X82151402Y-57381506D01*
X82151395Y-57381501D01*
X82138927Y-57372771D01*
X82112521Y-57354281D01*
X81957834Y-57245967D01*
X81957830Y-57245965D01*
X81957828Y-57245964D01*
X81743663Y-57146097D01*
X81743659Y-57146096D01*
X81743655Y-57146094D01*
X81515413Y-57084938D01*
X81515403Y-57084936D01*
X81280001Y-57064341D01*
X81279999Y-57064341D01*
X81044596Y-57084936D01*
X81044586Y-57084938D01*
X80816344Y-57146094D01*
X80816335Y-57146098D01*
X80602171Y-57245964D01*
X80602169Y-57245965D01*
X80408597Y-57381505D01*
X80241505Y-57548597D01*
X80111575Y-57734158D01*
X80056998Y-57777783D01*
X79987500Y-57784977D01*
X79925145Y-57753454D01*
X79908425Y-57734158D01*
X79778494Y-57548597D01*
X79611402Y-57381506D01*
X79611395Y-57381501D01*
X79598927Y-57372771D01*
X79572521Y-57354281D01*
X79417834Y-57245967D01*
X79417830Y-57245965D01*
X79417828Y-57245964D01*
X79203663Y-57146097D01*
X79203659Y-57146096D01*
X79203655Y-57146094D01*
X78975413Y-57084938D01*
X78975403Y-57084936D01*
X78740001Y-57064341D01*
X78739999Y-57064341D01*
X78504596Y-57084936D01*
X78504586Y-57084938D01*
X78276344Y-57146094D01*
X78276335Y-57146098D01*
X78062171Y-57245964D01*
X78062169Y-57245965D01*
X77868600Y-57381503D01*
X77746284Y-57503819D01*
X77684961Y-57537303D01*
X77615269Y-57532319D01*
X77559336Y-57490447D01*
X77542421Y-57459470D01*
X77493354Y-57327913D01*
X77493350Y-57327906D01*
X77407190Y-57212812D01*
X77407187Y-57212809D01*
X77292093Y-57126649D01*
X77292086Y-57126645D01*
X77157379Y-57076403D01*
X77157372Y-57076401D01*
X77097844Y-57070000D01*
X76450000Y-57070000D01*
X76450000Y-57984498D01*
X76342315Y-57935320D01*
X76235763Y-57920000D01*
X76164237Y-57920000D01*
X76057685Y-57935320D01*
X75950000Y-57984498D01*
X75950000Y-57070000D01*
X75302155Y-57070000D01*
X75242627Y-57076401D01*
X75242620Y-57076403D01*
X75107913Y-57126645D01*
X75107906Y-57126649D01*
X74992812Y-57212809D01*
X74992809Y-57212812D01*
X74906649Y-57327906D01*
X74906645Y-57327913D01*
X74856403Y-57462620D01*
X74856401Y-57462627D01*
X74850000Y-57522155D01*
X74850000Y-58170000D01*
X75766314Y-58170000D01*
X75740507Y-58210156D01*
X75700000Y-58348111D01*
X75700000Y-58491889D01*
X75740507Y-58629844D01*
X75766314Y-58670000D01*
X74850000Y-58670000D01*
X74850000Y-59317844D01*
X74856401Y-59377372D01*
X74856403Y-59377379D01*
X74906645Y-59512086D01*
X74906649Y-59512093D01*
X74992809Y-59627187D01*
X74992812Y-59627190D01*
X75107906Y-59713350D01*
X75107913Y-59713354D01*
X75242620Y-59763596D01*
X75242627Y-59763598D01*
X75302155Y-59769999D01*
X75302172Y-59770000D01*
X75950000Y-59770000D01*
X75950000Y-58855501D01*
X76057685Y-58904680D01*
X76164237Y-58920000D01*
X76235763Y-58920000D01*
X76342315Y-58904680D01*
X76450000Y-58855501D01*
X76450000Y-59770000D01*
X77097828Y-59770000D01*
X77097844Y-59769999D01*
X77157372Y-59763598D01*
X77157379Y-59763596D01*
X77292086Y-59713354D01*
X77292093Y-59713350D01*
X77407187Y-59627190D01*
X77407190Y-59627187D01*
X77493350Y-59512093D01*
X77493354Y-59512086D01*
X77542422Y-59380529D01*
X77584293Y-59324595D01*
X77649757Y-59300178D01*
X77718030Y-59315030D01*
X77746285Y-59336181D01*
X77868599Y-59458495D01*
X78058658Y-59591576D01*
X78061412Y-59593504D01*
X78105037Y-59648081D01*
X78114227Y-59691169D01*
X78114469Y-59698834D01*
X78114500Y-59700789D01*
X78114500Y-59729343D01*
X78114501Y-59729360D01*
X78115368Y-59736231D01*
X78115826Y-59742050D01*
X78117290Y-59788624D01*
X78117291Y-59788627D01*
X78122880Y-59807867D01*
X78126824Y-59826911D01*
X78129336Y-59846792D01*
X78137698Y-59867913D01*
X78146490Y-59890119D01*
X78148382Y-59895647D01*
X78161381Y-59940388D01*
X78171580Y-59957634D01*
X78180138Y-59975103D01*
X78187514Y-59993732D01*
X78214898Y-60031423D01*
X78218106Y-60036307D01*
X78241827Y-60076416D01*
X78241833Y-60076424D01*
X78255990Y-60090580D01*
X78268628Y-60105376D01*
X78280405Y-60121586D01*
X78280406Y-60121587D01*
X78316309Y-60151288D01*
X78320620Y-60155210D01*
X82269182Y-64103772D01*
X82302666Y-64165093D01*
X82305500Y-64191451D01*
X82305500Y-68681204D01*
X82285815Y-68748243D01*
X82233011Y-68793998D01*
X82163853Y-68803942D01*
X82110377Y-68782779D01*
X81957834Y-68675967D01*
X81957830Y-68675965D01*
X81886727Y-68642809D01*
X81743663Y-68576097D01*
X81743659Y-68576096D01*
X81743655Y-68576094D01*
X81515413Y-68514938D01*
X81515403Y-68514936D01*
X81280001Y-68494341D01*
X81279999Y-68494341D01*
X81044596Y-68514936D01*
X81044586Y-68514938D01*
X80816344Y-68576094D01*
X80816335Y-68576098D01*
X80602171Y-68675964D01*
X80602169Y-68675965D01*
X80408597Y-68811505D01*
X80241505Y-68978597D01*
X80111575Y-69164158D01*
X80056998Y-69207783D01*
X79987500Y-69214977D01*
X79925145Y-69183454D01*
X79908425Y-69164158D01*
X79778494Y-68978597D01*
X79611402Y-68811506D01*
X79611395Y-68811501D01*
X79602523Y-68805289D01*
X79521054Y-68748243D01*
X79417834Y-68675967D01*
X79417830Y-68675965D01*
X79346727Y-68642809D01*
X79203663Y-68576097D01*
X79203659Y-68576096D01*
X79203655Y-68576094D01*
X78975413Y-68514938D01*
X78975403Y-68514936D01*
X78740001Y-68494341D01*
X78739999Y-68494341D01*
X78504596Y-68514936D01*
X78504586Y-68514938D01*
X78276344Y-68576094D01*
X78276335Y-68576098D01*
X78062171Y-68675964D01*
X78062169Y-68675965D01*
X77868600Y-68811503D01*
X77746284Y-68933819D01*
X77684961Y-68967303D01*
X77615269Y-68962319D01*
X77559336Y-68920447D01*
X77542421Y-68889470D01*
X77493354Y-68757913D01*
X77493350Y-68757906D01*
X77407190Y-68642812D01*
X77407187Y-68642809D01*
X77292093Y-68556649D01*
X77292086Y-68556645D01*
X77157379Y-68506403D01*
X77157372Y-68506401D01*
X77097844Y-68500000D01*
X76450000Y-68500000D01*
X76450000Y-69414498D01*
X76342315Y-69365320D01*
X76235763Y-69350000D01*
X76164237Y-69350000D01*
X76057685Y-69365320D01*
X75950000Y-69414498D01*
X75950000Y-68500000D01*
X75302155Y-68500000D01*
X75242627Y-68506401D01*
X75242620Y-68506403D01*
X75107913Y-68556645D01*
X75107906Y-68556649D01*
X74992812Y-68642809D01*
X74992809Y-68642812D01*
X74906649Y-68757906D01*
X74906645Y-68757913D01*
X74856403Y-68892620D01*
X74856401Y-68892627D01*
X74850000Y-68952155D01*
X74850000Y-69600000D01*
X75766314Y-69600000D01*
X75740507Y-69640156D01*
X75700000Y-69778111D01*
X75700000Y-69921889D01*
X75740507Y-70059844D01*
X75766314Y-70100000D01*
X74850000Y-70100000D01*
X74850000Y-70747844D01*
X74856401Y-70807372D01*
X74856403Y-70807379D01*
X74906645Y-70942086D01*
X74906649Y-70942093D01*
X74992809Y-71057187D01*
X74992812Y-71057190D01*
X75107906Y-71143350D01*
X75107913Y-71143354D01*
X75242620Y-71193596D01*
X75242627Y-71193598D01*
X75302155Y-71199999D01*
X75302172Y-71200000D01*
X75950000Y-71200000D01*
X75950000Y-70285501D01*
X76057685Y-70334680D01*
X76164237Y-70350000D01*
X76235763Y-70350000D01*
X76342315Y-70334680D01*
X76450000Y-70285501D01*
X76450000Y-71200000D01*
X77097828Y-71200000D01*
X77097844Y-71199999D01*
X77157372Y-71193598D01*
X77157379Y-71193596D01*
X77292086Y-71143354D01*
X77292093Y-71143350D01*
X77407187Y-71057190D01*
X77407190Y-71057187D01*
X77493350Y-70942093D01*
X77493354Y-70942086D01*
X77542422Y-70810529D01*
X77584293Y-70754595D01*
X77649757Y-70730178D01*
X77718030Y-70745030D01*
X77746285Y-70766181D01*
X77868597Y-70888493D01*
X77868603Y-70888498D01*
X77877475Y-70894710D01*
X78061624Y-71023653D01*
X78105248Y-71078228D01*
X78114500Y-71125226D01*
X78114500Y-72079546D01*
X78094815Y-72146585D01*
X78078181Y-72167227D01*
X74318708Y-75926699D01*
X74306451Y-75936520D01*
X74306634Y-75936741D01*
X74300622Y-75941714D01*
X74253932Y-75991432D01*
X74252579Y-75992829D01*
X74232389Y-76013019D01*
X74232377Y-76013032D01*
X74228121Y-76018517D01*
X74224337Y-76022947D01*
X74192437Y-76056918D01*
X74192436Y-76056920D01*
X74182784Y-76074476D01*
X74172110Y-76090726D01*
X74159829Y-76106561D01*
X74159824Y-76106568D01*
X74141315Y-76149338D01*
X74138745Y-76154584D01*
X74116303Y-76195406D01*
X74111322Y-76214807D01*
X74105021Y-76233210D01*
X74097062Y-76251602D01*
X74097061Y-76251605D01*
X74089771Y-76297627D01*
X74088587Y-76303346D01*
X74077001Y-76348472D01*
X74077000Y-76348482D01*
X74077000Y-76368516D01*
X74075473Y-76387913D01*
X74072340Y-76407696D01*
X74076331Y-76449915D01*
X74076725Y-76454083D01*
X74077000Y-76459921D01*
X74077000Y-93641968D01*
X74057315Y-93709007D01*
X74018097Y-93747506D01*
X73941653Y-93794657D01*
X73941649Y-93794660D01*
X73862181Y-93874129D01*
X73800858Y-93907614D01*
X73731166Y-93902630D01*
X73675233Y-93860758D01*
X73650816Y-93795294D01*
X73650500Y-93786448D01*
X73650500Y-67563185D01*
X73670185Y-67496146D01*
X73722989Y-67450391D01*
X73792147Y-67440447D01*
X73835373Y-67458087D01*
X73836637Y-67455899D01*
X73842270Y-67459151D01*
X74015192Y-67536142D01*
X74015197Y-67536144D01*
X74200354Y-67575500D01*
X74200355Y-67575500D01*
X74389644Y-67575500D01*
X74389646Y-67575500D01*
X74574803Y-67536144D01*
X74747730Y-67459151D01*
X74900871Y-67347888D01*
X74903788Y-67344647D01*
X74906600Y-67341526D01*
X74966087Y-67304879D01*
X74998748Y-67300500D01*
X77387257Y-67300500D01*
X77402877Y-67302224D01*
X77402904Y-67301939D01*
X77410666Y-67302673D01*
X77410666Y-67302672D01*
X77410667Y-67302673D01*
X77413999Y-67302568D01*
X77478847Y-67300531D01*
X77480794Y-67300500D01*
X77509347Y-67300500D01*
X77509350Y-67300500D01*
X77516228Y-67299630D01*
X77522041Y-67299172D01*
X77568627Y-67297709D01*
X77587869Y-67292117D01*
X77606912Y-67288174D01*
X77626792Y-67285664D01*
X77670122Y-67268507D01*
X77675646Y-67266617D01*
X77679396Y-67265527D01*
X77720390Y-67253618D01*
X77737629Y-67243422D01*
X77755103Y-67234862D01*
X77773727Y-67227488D01*
X77773727Y-67227487D01*
X77773732Y-67227486D01*
X77811449Y-67200082D01*
X77816305Y-67196892D01*
X77856420Y-67173170D01*
X77870589Y-67158999D01*
X77885379Y-67146368D01*
X77901587Y-67134594D01*
X77931299Y-67098676D01*
X77935212Y-67094376D01*
X78687771Y-66341819D01*
X78749095Y-66308334D01*
X78775453Y-66305500D01*
X78834644Y-66305500D01*
X78834646Y-66305500D01*
X79019803Y-66266144D01*
X79192730Y-66189151D01*
X79345871Y-66077888D01*
X79472533Y-65937216D01*
X79567179Y-65773284D01*
X79625674Y-65593256D01*
X79645460Y-65405000D01*
X79625674Y-65216744D01*
X79567179Y-65036716D01*
X79472533Y-64872784D01*
X79345871Y-64732112D01*
X79316052Y-64710447D01*
X79192734Y-64620851D01*
X79192729Y-64620848D01*
X79019807Y-64543857D01*
X79019802Y-64543855D01*
X78874000Y-64512865D01*
X78834646Y-64504500D01*
X78645354Y-64504500D01*
X78612897Y-64511398D01*
X78460197Y-64543855D01*
X78460192Y-64543857D01*
X78287270Y-64620848D01*
X78287265Y-64620851D01*
X78134129Y-64732111D01*
X78007466Y-64872785D01*
X77912821Y-65036715D01*
X77912818Y-65036722D01*
X77854327Y-65216740D01*
X77854326Y-65216744D01*
X77836679Y-65384649D01*
X77810094Y-65449263D01*
X77801039Y-65459368D01*
X77247228Y-66013181D01*
X77185905Y-66046666D01*
X77159547Y-66049500D01*
X74998748Y-66049500D01*
X74931709Y-66029815D01*
X74906600Y-66008474D01*
X74900873Y-66002114D01*
X74900869Y-66002110D01*
X74747734Y-65890851D01*
X74747729Y-65890848D01*
X74574807Y-65813857D01*
X74574802Y-65813855D01*
X74429000Y-65782865D01*
X74389646Y-65774500D01*
X74200354Y-65774500D01*
X74167897Y-65781398D01*
X74015197Y-65813855D01*
X74015192Y-65813857D01*
X73842270Y-65890848D01*
X73836637Y-65894101D01*
X73835145Y-65891517D01*
X73781483Y-65910617D01*
X73713441Y-65894739D01*
X73664785Y-65844595D01*
X73650500Y-65786814D01*
X73650500Y-53653244D01*
X73670185Y-53586205D01*
X73686819Y-53565563D01*
X74519168Y-52733215D01*
X74580491Y-52699730D01*
X74606849Y-52696896D01*
X83975861Y-52696896D01*
X83991481Y-52698620D01*
X83991508Y-52698335D01*
X83999270Y-52699069D01*
X83999270Y-52699068D01*
X83999271Y-52699069D01*
X84002603Y-52698964D01*
X84067451Y-52696927D01*
X84069398Y-52696896D01*
X84097951Y-52696896D01*
X84097954Y-52696896D01*
X84104832Y-52696026D01*
X84110645Y-52695568D01*
X84157231Y-52694105D01*
X84176473Y-52688513D01*
X84195516Y-52684570D01*
X84215396Y-52682060D01*
X84258726Y-52664903D01*
X84264250Y-52663013D01*
X84268000Y-52661923D01*
X84308994Y-52650014D01*
X84326233Y-52639818D01*
X84343707Y-52631258D01*
X84362331Y-52623884D01*
X84362331Y-52623883D01*
X84362336Y-52623882D01*
X84400053Y-52596478D01*
X84404909Y-52593288D01*
X84445024Y-52569566D01*
X84459193Y-52555395D01*
X84473983Y-52542764D01*
X84490191Y-52530990D01*
X84519903Y-52495072D01*
X84523816Y-52490772D01*
X86182771Y-50831818D01*
X86244094Y-50798333D01*
X86270452Y-50795499D01*
X86646670Y-50795499D01*
X86646676Y-50795499D01*
X86747753Y-50785174D01*
X86911516Y-50730908D01*
X87058350Y-50640340D01*
X87180340Y-50518350D01*
X87270908Y-50371516D01*
X87325174Y-50207753D01*
X87335500Y-50106677D01*
X87335499Y-49433324D01*
X87325174Y-49332247D01*
X87270908Y-49168484D01*
X87180340Y-49021650D01*
X87141016Y-48982326D01*
X87107532Y-48921004D01*
X87112516Y-48851312D01*
X87141018Y-48806964D01*
X87179945Y-48768037D01*
X87179947Y-48768034D01*
X87270448Y-48621311D01*
X87270453Y-48621300D01*
X87324680Y-48457652D01*
X87334999Y-48356654D01*
X87335000Y-48356641D01*
X87335000Y-48270000D01*
X85385001Y-48270000D01*
X85385001Y-48356654D01*
X85395319Y-48457652D01*
X85449546Y-48621300D01*
X85449551Y-48621311D01*
X85540052Y-48768034D01*
X85540055Y-48768038D01*
X85578982Y-48806965D01*
X85612467Y-48868288D01*
X85607483Y-48937980D01*
X85578983Y-48982326D01*
X85539661Y-49021648D01*
X85449093Y-49168481D01*
X85449091Y-49168486D01*
X85432845Y-49217513D01*
X85394826Y-49332247D01*
X85394826Y-49332248D01*
X85394825Y-49332248D01*
X85384500Y-49433315D01*
X85384500Y-49809546D01*
X85364815Y-49876585D01*
X85348181Y-49897227D01*
X83835832Y-51409577D01*
X83774509Y-51443062D01*
X83748151Y-51445896D01*
X80788056Y-51445896D01*
X80721017Y-51426211D01*
X80675262Y-51373407D01*
X80665318Y-51304249D01*
X80694343Y-51240693D01*
X80700375Y-51234215D01*
X81102771Y-50831818D01*
X81164094Y-50798333D01*
X81190452Y-50795499D01*
X81566670Y-50795499D01*
X81566676Y-50795499D01*
X81667753Y-50785174D01*
X81831516Y-50730908D01*
X81978350Y-50640340D01*
X82100340Y-50518350D01*
X82190908Y-50371516D01*
X82245174Y-50207753D01*
X82255500Y-50106677D01*
X82255499Y-49433324D01*
X82245174Y-49332247D01*
X82190908Y-49168484D01*
X82100340Y-49021650D01*
X82061016Y-48982326D01*
X82027532Y-48921004D01*
X82032516Y-48851312D01*
X82061018Y-48806964D01*
X82099945Y-48768037D01*
X82099947Y-48768034D01*
X82190448Y-48621311D01*
X82190453Y-48621300D01*
X82244680Y-48457652D01*
X82254999Y-48356654D01*
X82255000Y-48356641D01*
X82255000Y-48270000D01*
X80305001Y-48270000D01*
X80305001Y-48356654D01*
X80315319Y-48457652D01*
X80369546Y-48621300D01*
X80369551Y-48621311D01*
X80460052Y-48768034D01*
X80460055Y-48768038D01*
X80498982Y-48806965D01*
X80532467Y-48868288D01*
X80527483Y-48937980D01*
X80498983Y-48982326D01*
X80459661Y-49021648D01*
X80369093Y-49168481D01*
X80369091Y-49168486D01*
X80352845Y-49217513D01*
X80314826Y-49332247D01*
X80314826Y-49332248D01*
X80314825Y-49332248D01*
X80304500Y-49433315D01*
X80304500Y-49809547D01*
X80284815Y-49876586D01*
X80268181Y-49897228D01*
X79391530Y-50773879D01*
X79330207Y-50807364D01*
X79303849Y-50810198D01*
X77027854Y-50810198D01*
X76960815Y-50790513D01*
X76915060Y-50737709D01*
X76905116Y-50668551D01*
X76934141Y-50604995D01*
X76940173Y-50598517D01*
X76979550Y-50559140D01*
X77020340Y-50518350D01*
X77110908Y-50371516D01*
X77165174Y-50207753D01*
X77175500Y-50106677D01*
X77175499Y-49433324D01*
X77165174Y-49332247D01*
X77110908Y-49168484D01*
X77020340Y-49021650D01*
X76981016Y-48982326D01*
X76947532Y-48921004D01*
X76952516Y-48851312D01*
X76981018Y-48806964D01*
X77019945Y-48768037D01*
X77019947Y-48768034D01*
X77110448Y-48621311D01*
X77110453Y-48621300D01*
X77164680Y-48457652D01*
X77174999Y-48356654D01*
X77175000Y-48356641D01*
X77175000Y-48270000D01*
X75225001Y-48270000D01*
X75225001Y-48356654D01*
X75235319Y-48457652D01*
X75289546Y-48621300D01*
X75289551Y-48621311D01*
X75380052Y-48768034D01*
X75380055Y-48768038D01*
X75418982Y-48806965D01*
X75452467Y-48868288D01*
X75447483Y-48937980D01*
X75418983Y-48982326D01*
X75379661Y-49021648D01*
X75379659Y-49021650D01*
X75379660Y-49021650D01*
X75338663Y-49088115D01*
X75286717Y-49134838D01*
X75237023Y-49146956D01*
X75226372Y-49147290D01*
X75226369Y-49147291D01*
X75207126Y-49152881D01*
X75188083Y-49156825D01*
X75168204Y-49159336D01*
X75168203Y-49159337D01*
X75124878Y-49176490D01*
X75119352Y-49178382D01*
X75074608Y-49191383D01*
X75074604Y-49191385D01*
X75057365Y-49201580D01*
X75039898Y-49210137D01*
X75021269Y-49217512D01*
X75021267Y-49217513D01*
X74983564Y-49244906D01*
X74978682Y-49248112D01*
X74938580Y-49271828D01*
X74924408Y-49286000D01*
X74909623Y-49298628D01*
X74893412Y-49310407D01*
X74863709Y-49346310D01*
X74859777Y-49350631D01*
X71957181Y-52253227D01*
X71895858Y-52286712D01*
X71826166Y-52281728D01*
X71770233Y-52239856D01*
X71745816Y-52174392D01*
X71745500Y-52165546D01*
X71745500Y-50754481D01*
X71765185Y-50687442D01*
X71804404Y-50648942D01*
X71805295Y-50648392D01*
X71818350Y-50640340D01*
X71940340Y-50518350D01*
X72030908Y-50371516D01*
X72085174Y-50207753D01*
X72095500Y-50106677D01*
X72095499Y-49433324D01*
X72085174Y-49332247D01*
X72030908Y-49168484D01*
X71940340Y-49021650D01*
X71901016Y-48982326D01*
X71867532Y-48921004D01*
X71872516Y-48851312D01*
X71901018Y-48806964D01*
X71939945Y-48768037D01*
X71939947Y-48768034D01*
X72030448Y-48621311D01*
X72030453Y-48621300D01*
X72084680Y-48457652D01*
X72094999Y-48356654D01*
X72095000Y-48356641D01*
X72095000Y-48270000D01*
X70145001Y-48270000D01*
X70145001Y-48356654D01*
X70155319Y-48457652D01*
X70209546Y-48621300D01*
X70209551Y-48621311D01*
X70300052Y-48768034D01*
X70300055Y-48768038D01*
X70338982Y-48806965D01*
X70372467Y-48868288D01*
X70367483Y-48937980D01*
X70338983Y-48982326D01*
X70299661Y-49021648D01*
X70209093Y-49168481D01*
X70209091Y-49168486D01*
X70192845Y-49217513D01*
X70154826Y-49332247D01*
X70154826Y-49332248D01*
X70154825Y-49332248D01*
X70144500Y-49433315D01*
X70144500Y-50106669D01*
X70144501Y-50106687D01*
X70154825Y-50207752D01*
X70191109Y-50317249D01*
X70209092Y-50371516D01*
X70299660Y-50518350D01*
X70421650Y-50640340D01*
X70433920Y-50647908D01*
X70435596Y-50648942D01*
X70482321Y-50700890D01*
X70494500Y-50754481D01*
X70494500Y-101517255D01*
X70492775Y-101532872D01*
X70493061Y-101532899D01*
X70492326Y-101540666D01*
X70494469Y-101608846D01*
X70494500Y-101610793D01*
X70494500Y-101639343D01*
X70494501Y-101639360D01*
X70495368Y-101646231D01*
X70495826Y-101652050D01*
X70497290Y-101698624D01*
X70497291Y-101698627D01*
X70502880Y-101717867D01*
X70506824Y-101736911D01*
X70509336Y-101756791D01*
X70526490Y-101800119D01*
X70528382Y-101805647D01*
X70541381Y-101850388D01*
X70551580Y-101867634D01*
X70560138Y-101885103D01*
X70567514Y-101903732D01*
X70594898Y-101941423D01*
X70598106Y-101946307D01*
X70621827Y-101986416D01*
X70621833Y-101986424D01*
X70635990Y-102000580D01*
X70648628Y-102015376D01*
X70660405Y-102031586D01*
X70660406Y-102031587D01*
X70696309Y-102061288D01*
X70700620Y-102065210D01*
X73987925Y-105352516D01*
X74929197Y-106293788D01*
X74939022Y-106306051D01*
X74939243Y-106305869D01*
X74944211Y-106311874D01*
X74993932Y-106358566D01*
X74995332Y-106359923D01*
X75015523Y-106380115D01*
X75015527Y-106380118D01*
X75015529Y-106380120D01*
X75021011Y-106384373D01*
X75025443Y-106388157D01*
X75059418Y-106420062D01*
X75076976Y-106429714D01*
X75093235Y-106440395D01*
X75109064Y-106452673D01*
X75151838Y-106471182D01*
X75157056Y-106473738D01*
X75197908Y-106496197D01*
X75217316Y-106501180D01*
X75235717Y-106507480D01*
X75254104Y-106515437D01*
X75297488Y-106522308D01*
X75300119Y-106522725D01*
X75305839Y-106523909D01*
X75350981Y-106535500D01*
X75371016Y-106535500D01*
X75390414Y-106537026D01*
X75410194Y-106540159D01*
X75410195Y-106540160D01*
X75410195Y-106540159D01*
X75410196Y-106540160D01*
X75456583Y-106535775D01*
X75462422Y-106535500D01*
X75506139Y-106535500D01*
X75573178Y-106555185D01*
X75610637Y-106595418D01*
X75610888Y-106595231D01*
X75612635Y-106597565D01*
X75614973Y-106600076D01*
X75616207Y-106602336D01*
X75702452Y-106717544D01*
X75702455Y-106717547D01*
X75817664Y-106803793D01*
X75817671Y-106803797D01*
X75952517Y-106854091D01*
X75952516Y-106854091D01*
X75959444Y-106854835D01*
X76012127Y-106860500D01*
X77007872Y-106860499D01*
X77067483Y-106854091D01*
X77136665Y-106828286D01*
X77206357Y-106823302D01*
X77223323Y-106828282D01*
X77292517Y-106854091D01*
X77352127Y-106860500D01*
X78347872Y-106860499D01*
X78407483Y-106854091D01*
X78466665Y-106832016D01*
X78536357Y-106827032D01*
X78553323Y-106832013D01*
X78612517Y-106854091D01*
X78672127Y-106860500D01*
X79667872Y-106860499D01*
X79727483Y-106854091D01*
X79796665Y-106828286D01*
X79866357Y-106823302D01*
X79883323Y-106828282D01*
X79952517Y-106854091D01*
X80012127Y-106860500D01*
X81007872Y-106860499D01*
X81067483Y-106854091D01*
X81202331Y-106803796D01*
X81317546Y-106717546D01*
X81403796Y-106602331D01*
X81454091Y-106467483D01*
X81460500Y-106407873D01*
X81460499Y-105412128D01*
X81454091Y-105352517D01*
X81403796Y-105217669D01*
X81403795Y-105217668D01*
X81403793Y-105217664D01*
X81317547Y-105102455D01*
X81317544Y-105102452D01*
X81202329Y-105016202D01*
X81200068Y-105014967D01*
X81198246Y-105013145D01*
X81195231Y-105010888D01*
X81195555Y-105010454D01*
X81150665Y-104965559D01*
X81135500Y-104906138D01*
X81135500Y-104722737D01*
X81137224Y-104707123D01*
X81136938Y-104707096D01*
X81137672Y-104699333D01*
X81135531Y-104631171D01*
X81135500Y-104629224D01*
X81135500Y-104600651D01*
X81135500Y-104600650D01*
X81134629Y-104593759D01*
X81134172Y-104587945D01*
X81132709Y-104541372D01*
X81127122Y-104522144D01*
X81123174Y-104503084D01*
X81120664Y-104483208D01*
X81103507Y-104439875D01*
X81101619Y-104434359D01*
X81088619Y-104389612D01*
X81078418Y-104372363D01*
X81069860Y-104354894D01*
X81062486Y-104336268D01*
X81062483Y-104336264D01*
X81062483Y-104336263D01*
X81035098Y-104298571D01*
X81031890Y-104293687D01*
X81008172Y-104253582D01*
X81008163Y-104253571D01*
X80994005Y-104239413D01*
X80981370Y-104224620D01*
X80969593Y-104208412D01*
X80933693Y-104178713D01*
X80929381Y-104174790D01*
X77970803Y-101216212D01*
X77960980Y-101203950D01*
X77960759Y-101204134D01*
X77955786Y-101198122D01*
X77906066Y-101151432D01*
X77904666Y-101150075D01*
X77884476Y-101129884D01*
X77878986Y-101125625D01*
X77874561Y-101121847D01*
X77840582Y-101089938D01*
X77840580Y-101089936D01*
X77840577Y-101089935D01*
X77823029Y-101080288D01*
X77806763Y-101069604D01*
X77790933Y-101057325D01*
X77748168Y-101038818D01*
X77742922Y-101036248D01*
X77702093Y-101013803D01*
X77702092Y-101013802D01*
X77682693Y-101008822D01*
X77664281Y-101002518D01*
X77645898Y-100994562D01*
X77645892Y-100994560D01*
X77599874Y-100987272D01*
X77594152Y-100986087D01*
X77549021Y-100974500D01*
X77549019Y-100974500D01*
X77528984Y-100974500D01*
X77509586Y-100972973D01*
X77502162Y-100971797D01*
X77489805Y-100969840D01*
X77489804Y-100969840D01*
X77443416Y-100974225D01*
X77437578Y-100974500D01*
X75240452Y-100974500D01*
X75173413Y-100954815D01*
X75152771Y-100938181D01*
X74420483Y-100205893D01*
X74049583Y-99834992D01*
X74016099Y-99773671D01*
X74021083Y-99703979D01*
X74062955Y-99648046D01*
X74128419Y-99623629D01*
X74149867Y-99623954D01*
X74164991Y-99625500D01*
X74965008Y-99625499D01*
X74965016Y-99625498D01*
X74965019Y-99625498D01*
X75021302Y-99619748D01*
X75067797Y-99614999D01*
X75234334Y-99559814D01*
X75383656Y-99467712D01*
X75477322Y-99374045D01*
X75538641Y-99340563D01*
X75608333Y-99345547D01*
X75652676Y-99374044D01*
X75746344Y-99467712D01*
X75895666Y-99559814D01*
X76062203Y-99614999D01*
X76164991Y-99625500D01*
X76965008Y-99625499D01*
X76965016Y-99625498D01*
X76965019Y-99625498D01*
X77021302Y-99619748D01*
X77067797Y-99614999D01*
X77234334Y-99559814D01*
X77383656Y-99467712D01*
X77507712Y-99343656D01*
X77599814Y-99194334D01*
X77654999Y-99027797D01*
X77665500Y-98925009D01*
X77665499Y-97924992D01*
X77664386Y-97914100D01*
X77654999Y-97822203D01*
X77654998Y-97822200D01*
X77599814Y-97655666D01*
X77507712Y-97506344D01*
X77497852Y-97496484D01*
X77464367Y-97435161D01*
X77469351Y-97365469D01*
X77511223Y-97309536D01*
X77576687Y-97285119D01*
X77644960Y-97299971D01*
X77647531Y-97301415D01*
X77652267Y-97304148D01*
X77652270Y-97304151D01*
X77715572Y-97332335D01*
X77825192Y-97381142D01*
X77825197Y-97381144D01*
X78010354Y-97420500D01*
X78010355Y-97420500D01*
X78199644Y-97420500D01*
X78199646Y-97420500D01*
X78384803Y-97381144D01*
X78557730Y-97304151D01*
X78710871Y-97192888D01*
X78837533Y-97052216D01*
X78932179Y-96888284D01*
X78990674Y-96708256D01*
X79010460Y-96520000D01*
X78990674Y-96331744D01*
X78932179Y-96151716D01*
X78837533Y-95987784D01*
X78710871Y-95847112D01*
X78710870Y-95847111D01*
X78557734Y-95735851D01*
X78557729Y-95735848D01*
X78384807Y-95658857D01*
X78384802Y-95658855D01*
X78239001Y-95627865D01*
X78199646Y-95619500D01*
X78010354Y-95619500D01*
X77977897Y-95626398D01*
X77825197Y-95658855D01*
X77825192Y-95658857D01*
X77652270Y-95735848D01*
X77652265Y-95735851D01*
X77499130Y-95847110D01*
X77499126Y-95847114D01*
X77493400Y-95853474D01*
X77433913Y-95890121D01*
X77401252Y-95894500D01*
X76917743Y-95894500D01*
X76902122Y-95892775D01*
X76902095Y-95893061D01*
X76894333Y-95892326D01*
X76826140Y-95894469D01*
X76824193Y-95894500D01*
X76795649Y-95894500D01*
X76788778Y-95895367D01*
X76782959Y-95895825D01*
X76736374Y-95897289D01*
X76736368Y-95897290D01*
X76717126Y-95902880D01*
X76698087Y-95906823D01*
X76678217Y-95909334D01*
X76678203Y-95909337D01*
X76634883Y-95926488D01*
X76629358Y-95928380D01*
X76584613Y-95941380D01*
X76584610Y-95941381D01*
X76567366Y-95951579D01*
X76549905Y-95960133D01*
X76531274Y-95967510D01*
X76531262Y-95967517D01*
X76493570Y-95994902D01*
X76488687Y-95998109D01*
X76448580Y-96021829D01*
X76434414Y-96035995D01*
X76419624Y-96048627D01*
X76403414Y-96060404D01*
X76403408Y-96060410D01*
X76373711Y-96096308D01*
X76369778Y-96100630D01*
X76181206Y-96289201D01*
X76168943Y-96299027D01*
X76169126Y-96299248D01*
X76163119Y-96304216D01*
X76116431Y-96353934D01*
X76115077Y-96355331D01*
X76094889Y-96375519D01*
X76094877Y-96375532D01*
X76090621Y-96381017D01*
X76086837Y-96385447D01*
X76054937Y-96419418D01*
X76054936Y-96419420D01*
X76045284Y-96436976D01*
X76034610Y-96453226D01*
X76022329Y-96469061D01*
X76022324Y-96469068D01*
X76003815Y-96511838D01*
X76001245Y-96517084D01*
X75978803Y-96557906D01*
X75973822Y-96577307D01*
X75967521Y-96595710D01*
X75959562Y-96614102D01*
X75959561Y-96614105D01*
X75952271Y-96660127D01*
X75951087Y-96665846D01*
X75939501Y-96710972D01*
X75939500Y-96710982D01*
X75939500Y-96731016D01*
X75937973Y-96750415D01*
X75934840Y-96770194D01*
X75934840Y-96770195D01*
X75939225Y-96816583D01*
X75939500Y-96822421D01*
X75939500Y-97193942D01*
X75919815Y-97260981D01*
X75880598Y-97299479D01*
X75839596Y-97324770D01*
X75746345Y-97382287D01*
X75652681Y-97475951D01*
X75591357Y-97509435D01*
X75521666Y-97504451D01*
X75477319Y-97475951D01*
X75435496Y-97434128D01*
X75383656Y-97382288D01*
X75383653Y-97382286D01*
X75383651Y-97382284D01*
X75377989Y-97377807D01*
X75379430Y-97375984D01*
X75340175Y-97332335D01*
X75328000Y-97278752D01*
X75328000Y-95588030D01*
X75347685Y-95520991D01*
X75386904Y-95482491D01*
X75463350Y-95435340D01*
X75477671Y-95421018D01*
X75538989Y-95387533D01*
X75608681Y-95392514D01*
X75653034Y-95421017D01*
X75666961Y-95434944D01*
X75666965Y-95434947D01*
X75813688Y-95525448D01*
X75813699Y-95525453D01*
X75977347Y-95579680D01*
X76078351Y-95589999D01*
X76177500Y-95589998D01*
X76177500Y-94865000D01*
X76677500Y-94865000D01*
X76677500Y-95589999D01*
X76776640Y-95589999D01*
X76776654Y-95589998D01*
X76877652Y-95579680D01*
X77041300Y-95525453D01*
X77041311Y-95525448D01*
X77188034Y-95434947D01*
X77188038Y-95434944D01*
X77309944Y-95313038D01*
X77309947Y-95313034D01*
X77400448Y-95166311D01*
X77400453Y-95166300D01*
X77454680Y-95002652D01*
X77464999Y-94901654D01*
X77465000Y-94901641D01*
X77465000Y-94865000D01*
X76677500Y-94865000D01*
X76177500Y-94865000D01*
X76177500Y-93640000D01*
X76677500Y-93640000D01*
X76677500Y-94365000D01*
X77464999Y-94365000D01*
X77464999Y-94328360D01*
X77464998Y-94328345D01*
X77454680Y-94227347D01*
X77400453Y-94063699D01*
X77400448Y-94063688D01*
X77309947Y-93916965D01*
X77309944Y-93916961D01*
X77188038Y-93795055D01*
X77188034Y-93795052D01*
X77041311Y-93704551D01*
X77041300Y-93704546D01*
X76877652Y-93650319D01*
X76776654Y-93640000D01*
X76677500Y-93640000D01*
X76177500Y-93640000D01*
X76177500Y-93639999D01*
X76078360Y-93640000D01*
X76078344Y-93640001D01*
X75977347Y-93650319D01*
X75813699Y-93704546D01*
X75813688Y-93704551D01*
X75666965Y-93795052D01*
X75653032Y-93808985D01*
X75591708Y-93842468D01*
X75522016Y-93837482D01*
X75477672Y-93808982D01*
X75463350Y-93794660D01*
X75463346Y-93794657D01*
X75386903Y-93747506D01*
X75340178Y-93695558D01*
X75328000Y-93641968D01*
X75328000Y-87124334D01*
X77239500Y-87124334D01*
X77280429Y-87369616D01*
X77361169Y-87604802D01*
X77361172Y-87604811D01*
X77479524Y-87823506D01*
X77479526Y-87823509D01*
X77632262Y-88019744D01*
X77791744Y-88166557D01*
X77815217Y-88188166D01*
X78023393Y-88324173D01*
X78251118Y-88424063D01*
X78375493Y-88455559D01*
X78492179Y-88485108D01*
X78492181Y-88485108D01*
X78492186Y-88485109D01*
X78645589Y-88497819D01*
X78677933Y-88500500D01*
X78677937Y-88500500D01*
X78802063Y-88500500D01*
X78802067Y-88500500D01*
X78880764Y-88493979D01*
X78987813Y-88485109D01*
X78987816Y-88485108D01*
X78987821Y-88485108D01*
X79228881Y-88424063D01*
X79456607Y-88324173D01*
X79664785Y-88188164D01*
X79847738Y-88019744D01*
X80000474Y-87823509D01*
X80118828Y-87604810D01*
X80199571Y-87369614D01*
X80240500Y-87124335D01*
X80240500Y-86875665D01*
X80199571Y-86630386D01*
X80118828Y-86395190D01*
X80000474Y-86176491D01*
X79847738Y-85980256D01*
X79664785Y-85811836D01*
X79664782Y-85811833D01*
X79456606Y-85675826D01*
X79228881Y-85575936D01*
X78987824Y-85514892D01*
X78987813Y-85514890D01*
X78802077Y-85499500D01*
X78802067Y-85499500D01*
X78677933Y-85499500D01*
X78677922Y-85499500D01*
X78492186Y-85514890D01*
X78492175Y-85514892D01*
X78251118Y-85575936D01*
X78023393Y-85675826D01*
X77815217Y-85811833D01*
X77632261Y-85980257D01*
X77479524Y-86176493D01*
X77361172Y-86395188D01*
X77361169Y-86395197D01*
X77280429Y-86630383D01*
X77239500Y-86875665D01*
X77239500Y-87124334D01*
X75328000Y-87124334D01*
X75328000Y-76737951D01*
X75347685Y-76670912D01*
X75364314Y-76650275D01*
X79123788Y-72890801D01*
X79136042Y-72880986D01*
X79135859Y-72880764D01*
X79141868Y-72875791D01*
X79141877Y-72875786D01*
X79188607Y-72826022D01*
X79189846Y-72824743D01*
X79210120Y-72804471D01*
X79214379Y-72798978D01*
X79218152Y-72794561D01*
X79250062Y-72760582D01*
X79259713Y-72743024D01*
X79270396Y-72726761D01*
X79282673Y-72710936D01*
X79301185Y-72668153D01*
X79303738Y-72662941D01*
X79326197Y-72622092D01*
X79331180Y-72602680D01*
X79337481Y-72584280D01*
X79345437Y-72565896D01*
X79352729Y-72519852D01*
X79353906Y-72514171D01*
X79365500Y-72469019D01*
X79365500Y-72448982D01*
X79367027Y-72429582D01*
X79370160Y-72409804D01*
X79365775Y-72363415D01*
X79365500Y-72357577D01*
X79365500Y-71125226D01*
X79385185Y-71058187D01*
X79418374Y-71023654D01*
X79611401Y-70888495D01*
X79778495Y-70721401D01*
X79908424Y-70535842D01*
X79963002Y-70492217D01*
X80032500Y-70485023D01*
X80094855Y-70516546D01*
X80111575Y-70535842D01*
X80234610Y-70711555D01*
X80241505Y-70721401D01*
X80408599Y-70888495D01*
X80449624Y-70917221D01*
X80602165Y-71024032D01*
X80602167Y-71024033D01*
X80602170Y-71024035D01*
X80816337Y-71123903D01*
X80816343Y-71123904D01*
X80816344Y-71123905D01*
X80871285Y-71138626D01*
X81044592Y-71185063D01*
X81215319Y-71200000D01*
X81279999Y-71205659D01*
X81280000Y-71205659D01*
X81280001Y-71205659D01*
X81344681Y-71200000D01*
X81515408Y-71185063D01*
X81743663Y-71123903D01*
X81957830Y-71024035D01*
X82110377Y-70917220D01*
X82176581Y-70894893D01*
X82244348Y-70911903D01*
X82292162Y-70962850D01*
X82305499Y-71018795D01*
X82305500Y-89224546D01*
X82285815Y-89291585D01*
X82269181Y-89312227D01*
X80668708Y-90912699D01*
X80656451Y-90922520D01*
X80656634Y-90922741D01*
X80650622Y-90927714D01*
X80603932Y-90977432D01*
X80602579Y-90978829D01*
X80582389Y-90999019D01*
X80582377Y-90999032D01*
X80578121Y-91004517D01*
X80574337Y-91008947D01*
X80542437Y-91042918D01*
X80542436Y-91042920D01*
X80532784Y-91060476D01*
X80522110Y-91076726D01*
X80509829Y-91092561D01*
X80509824Y-91092568D01*
X80491315Y-91135338D01*
X80488745Y-91140584D01*
X80466303Y-91181406D01*
X80461322Y-91200807D01*
X80455021Y-91219210D01*
X80447062Y-91237602D01*
X80447061Y-91237605D01*
X80439771Y-91283627D01*
X80438587Y-91289346D01*
X80427001Y-91334472D01*
X80427000Y-91334482D01*
X80427000Y-91354516D01*
X80425473Y-91373915D01*
X80422340Y-91393694D01*
X80422340Y-91393695D01*
X80426725Y-91440083D01*
X80427000Y-91445921D01*
X80427000Y-93641968D01*
X80407315Y-93709007D01*
X80368097Y-93747506D01*
X80291653Y-93794657D01*
X80291649Y-93794660D01*
X80169661Y-93916648D01*
X80079093Y-94063481D01*
X80079091Y-94063486D01*
X80051719Y-94146088D01*
X80024826Y-94227247D01*
X80024826Y-94227248D01*
X80024825Y-94227248D01*
X80014500Y-94328315D01*
X80014500Y-94901669D01*
X80014501Y-94901687D01*
X80024825Y-95002752D01*
X80061109Y-95112249D01*
X80079092Y-95166516D01*
X80169660Y-95313350D01*
X80253183Y-95396873D01*
X80286666Y-95458192D01*
X80289500Y-95484551D01*
X80289500Y-97193942D01*
X80269815Y-97260981D01*
X80230598Y-97299479D01*
X80144209Y-97352764D01*
X80096342Y-97382289D01*
X79972289Y-97506342D01*
X79880187Y-97655663D01*
X79880185Y-97655668D01*
X79876795Y-97665899D01*
X79825001Y-97822203D01*
X79825001Y-97822204D01*
X79825000Y-97822204D01*
X79814500Y-97924983D01*
X79814500Y-98925001D01*
X79814501Y-98925019D01*
X79825000Y-99027796D01*
X79825001Y-99027799D01*
X79880185Y-99194331D01*
X79880186Y-99194334D01*
X79972288Y-99343656D01*
X80096344Y-99467712D01*
X80245666Y-99559814D01*
X80412203Y-99614999D01*
X80514991Y-99625500D01*
X81179546Y-99625499D01*
X81246585Y-99645183D01*
X81267227Y-99661818D01*
X83589197Y-101983788D01*
X83599022Y-101996051D01*
X83599243Y-101995869D01*
X83604211Y-102001874D01*
X83653932Y-102048566D01*
X83655332Y-102049923D01*
X83675523Y-102070115D01*
X83675527Y-102070118D01*
X83675529Y-102070120D01*
X83681011Y-102074373D01*
X83685443Y-102078157D01*
X83719418Y-102110062D01*
X83736976Y-102119714D01*
X83753233Y-102130393D01*
X83769064Y-102142673D01*
X83788737Y-102151186D01*
X83811833Y-102161182D01*
X83817077Y-102163750D01*
X83857908Y-102186197D01*
X83870523Y-102189435D01*
X83877305Y-102191177D01*
X83895719Y-102197481D01*
X83914104Y-102205438D01*
X83960157Y-102212732D01*
X83965826Y-102213906D01*
X84010981Y-102225500D01*
X84031016Y-102225500D01*
X84050413Y-102227026D01*
X84070196Y-102230160D01*
X84116583Y-102225775D01*
X84122422Y-102225500D01*
X87612129Y-102225500D01*
X87679168Y-102245185D01*
X87715937Y-102281678D01*
X87819842Y-102440716D01*
X87819850Y-102440727D01*
X87972950Y-102607036D01*
X87972954Y-102607040D01*
X88151351Y-102745893D01*
X88350169Y-102853488D01*
X88350172Y-102853489D01*
X88563982Y-102926890D01*
X88563984Y-102926890D01*
X88563986Y-102926891D01*
X88786967Y-102964100D01*
X88786968Y-102964100D01*
X89013032Y-102964100D01*
X89013033Y-102964100D01*
X89236014Y-102926891D01*
X89449831Y-102853488D01*
X89648649Y-102745893D01*
X89827046Y-102607040D01*
X89980156Y-102440719D01*
X90103802Y-102251465D01*
X90163178Y-102116100D01*
X90208133Y-102062616D01*
X90274868Y-102041926D01*
X90342196Y-102060600D01*
X90388740Y-102112710D01*
X90400733Y-102165683D01*
X90428018Y-116947154D01*
X90427921Y-116950746D01*
X90421538Y-117064387D01*
X90409300Y-117266714D01*
X90408536Y-117273361D01*
X90383762Y-117419174D01*
X90352834Y-117587940D01*
X90351426Y-117593931D01*
X90308894Y-117741565D01*
X90308509Y-117742847D01*
X90259417Y-117900388D01*
X90257504Y-117905672D01*
X90197769Y-118049887D01*
X90197026Y-118051606D01*
X90130307Y-118199849D01*
X90128032Y-118204396D01*
X90051916Y-118342116D01*
X90050711Y-118344200D01*
X89967261Y-118482244D01*
X89964767Y-118486049D01*
X89873331Y-118614914D01*
X89871571Y-118617273D01*
X89772446Y-118743797D01*
X89769870Y-118746874D01*
X89664390Y-118864908D01*
X89662000Y-118867435D01*
X89548486Y-118980949D01*
X89545959Y-118983339D01*
X89427923Y-119088821D01*
X89424846Y-119091397D01*
X89298314Y-119190529D01*
X89295954Y-119192289D01*
X89167117Y-119283704D01*
X89163313Y-119286198D01*
X89025234Y-119369671D01*
X89023149Y-119370876D01*
X88885448Y-119446981D01*
X88880901Y-119449256D01*
X88732638Y-119515984D01*
X88730918Y-119516727D01*
X88586726Y-119576452D01*
X88581443Y-119578364D01*
X88423907Y-119627456D01*
X88422625Y-119627840D01*
X88274983Y-119670376D01*
X88268991Y-119671784D01*
X88100225Y-119702712D01*
X87954412Y-119727486D01*
X87947765Y-119728250D01*
X87745438Y-119740488D01*
X87631715Y-119746875D01*
X87628295Y-119746972D01*
X69851766Y-119763381D01*
X69848232Y-119763283D01*
X69734419Y-119756892D01*
X69532426Y-119744674D01*
X69525779Y-119743910D01*
X69380015Y-119719144D01*
X69211390Y-119688242D01*
X69205398Y-119686834D01*
X69057792Y-119644309D01*
X69056510Y-119643924D01*
X68899128Y-119594882D01*
X68893844Y-119592969D01*
X68749685Y-119533256D01*
X68747966Y-119532513D01*
X68622407Y-119476005D01*
X68599835Y-119465846D01*
X68595295Y-119463574D01*
X68457647Y-119387498D01*
X68455562Y-119386293D01*
X68317588Y-119302884D01*
X68313792Y-119300394D01*
X68185019Y-119209025D01*
X68182660Y-119207266D01*
X68056199Y-119108191D01*
X68053142Y-119105633D01*
X67935143Y-119000182D01*
X67932635Y-118997810D01*
X67819188Y-118884363D01*
X67816819Y-118881858D01*
X67711361Y-118763851D01*
X67708807Y-118760799D01*
X67609732Y-118634338D01*
X67607973Y-118631979D01*
X67516596Y-118503194D01*
X67514114Y-118499410D01*
X67503737Y-118482244D01*
X67430691Y-118361411D01*
X67429500Y-118359351D01*
X67382273Y-118273901D01*
X67353420Y-118221696D01*
X67351162Y-118217184D01*
X67294969Y-118092328D01*
X67284485Y-118069032D01*
X67283742Y-118067313D01*
X67264880Y-118021776D01*
X67224024Y-117923141D01*
X67222123Y-117917891D01*
X67215884Y-117897870D01*
X73589500Y-117897870D01*
X73589501Y-117897876D01*
X73595908Y-117957483D01*
X73646202Y-118092328D01*
X73646206Y-118092335D01*
X73732452Y-118207544D01*
X73732455Y-118207547D01*
X73847664Y-118293793D01*
X73847671Y-118293797D01*
X73982517Y-118344091D01*
X73982516Y-118344091D01*
X73989444Y-118344835D01*
X74042127Y-118350500D01*
X75837872Y-118350499D01*
X75897483Y-118344091D01*
X76032331Y-118293796D01*
X76147546Y-118207546D01*
X76233796Y-118092331D01*
X76282810Y-117960916D01*
X76324681Y-117904984D01*
X76390145Y-117880566D01*
X76458418Y-117895417D01*
X76486673Y-117916569D01*
X76608599Y-118038495D01*
X76705384Y-118106264D01*
X76802165Y-118174032D01*
X76802167Y-118174033D01*
X76802170Y-118174035D01*
X77016337Y-118273903D01*
X77244592Y-118335063D01*
X77421034Y-118350500D01*
X77479999Y-118355659D01*
X77480000Y-118355659D01*
X77480001Y-118355659D01*
X77538966Y-118350500D01*
X77715408Y-118335063D01*
X77943663Y-118273903D01*
X78157830Y-118174035D01*
X78351401Y-118038495D01*
X78518495Y-117871401D01*
X78648424Y-117685842D01*
X78703002Y-117642217D01*
X78772500Y-117635023D01*
X78834855Y-117666546D01*
X78851575Y-117685842D01*
X78981281Y-117871082D01*
X78981505Y-117871401D01*
X79148599Y-118038495D01*
X79245384Y-118106264D01*
X79342165Y-118174032D01*
X79342167Y-118174033D01*
X79342170Y-118174035D01*
X79556337Y-118273903D01*
X79784592Y-118335063D01*
X79961034Y-118350500D01*
X80019999Y-118355659D01*
X80020000Y-118355659D01*
X80020001Y-118355659D01*
X80078966Y-118350500D01*
X80255408Y-118335063D01*
X80483663Y-118273903D01*
X80697830Y-118174035D01*
X80891401Y-118038495D01*
X81058495Y-117871401D01*
X81188730Y-117685405D01*
X81243307Y-117641781D01*
X81312805Y-117634587D01*
X81375160Y-117666110D01*
X81391879Y-117685405D01*
X81521890Y-117871078D01*
X81688917Y-118038105D01*
X81882421Y-118173600D01*
X82096507Y-118273429D01*
X82096516Y-118273433D01*
X82310000Y-118330634D01*
X82309999Y-117435501D01*
X82417685Y-117484680D01*
X82524237Y-117500000D01*
X82595763Y-117500000D01*
X82702315Y-117484680D01*
X82810000Y-117435501D01*
X82810000Y-118330633D01*
X83023483Y-118273433D01*
X83023492Y-118273429D01*
X83237578Y-118173600D01*
X83431082Y-118038105D01*
X83598105Y-117871082D01*
X83733600Y-117677578D01*
X83833429Y-117463492D01*
X83833432Y-117463486D01*
X83890636Y-117250000D01*
X82993686Y-117250000D01*
X83019493Y-117209844D01*
X83060000Y-117071889D01*
X83060000Y-116928111D01*
X83019493Y-116790156D01*
X82993686Y-116750000D01*
X83890636Y-116750000D01*
X83890635Y-116749999D01*
X83833432Y-116536513D01*
X83833429Y-116536507D01*
X83733600Y-116322422D01*
X83733599Y-116322420D01*
X83598113Y-116128926D01*
X83598108Y-116128920D01*
X83431082Y-115961894D01*
X83237578Y-115826399D01*
X83023492Y-115726570D01*
X83023486Y-115726567D01*
X82810000Y-115669364D01*
X82810000Y-116564498D01*
X82702315Y-116515320D01*
X82595763Y-116500000D01*
X82524237Y-116500000D01*
X82417685Y-116515320D01*
X82309999Y-116564498D01*
X82309999Y-115669364D01*
X82096513Y-115726567D01*
X82096507Y-115726570D01*
X81882422Y-115826399D01*
X81882420Y-115826400D01*
X81688926Y-115961886D01*
X81688920Y-115961891D01*
X81521891Y-116128920D01*
X81521890Y-116128922D01*
X81391880Y-116314595D01*
X81337303Y-116358219D01*
X81267804Y-116365412D01*
X81205450Y-116333890D01*
X81188730Y-116314594D01*
X81058494Y-116128597D01*
X80891402Y-115961506D01*
X80891395Y-115961501D01*
X80698376Y-115826347D01*
X80654751Y-115771770D01*
X80645500Y-115724777D01*
X80645500Y-115235451D01*
X80665185Y-115168412D01*
X80681819Y-115147771D01*
X82497772Y-113331819D01*
X82559095Y-113298334D01*
X82585453Y-113295500D01*
X82644644Y-113295500D01*
X82644646Y-113295500D01*
X82829803Y-113256144D01*
X83002730Y-113179151D01*
X83155871Y-113067888D01*
X83282533Y-112927216D01*
X83377179Y-112763284D01*
X83435674Y-112583256D01*
X83455460Y-112395000D01*
X83435674Y-112206744D01*
X83377179Y-112026716D01*
X83282533Y-111862784D01*
X83155871Y-111722112D01*
X83155870Y-111722111D01*
X83002734Y-111610851D01*
X83002729Y-111610848D01*
X82829807Y-111533857D01*
X82829802Y-111533855D01*
X82684000Y-111502865D01*
X82644646Y-111494500D01*
X82455354Y-111494500D01*
X82422897Y-111501398D01*
X82270197Y-111533855D01*
X82270192Y-111533857D01*
X82097270Y-111610848D01*
X82097265Y-111610851D01*
X81944129Y-111722111D01*
X81817466Y-111862785D01*
X81722821Y-112026715D01*
X81722818Y-112026722D01*
X81676106Y-112170488D01*
X81664326Y-112206744D01*
X81651258Y-112331082D01*
X81646679Y-112374649D01*
X81620094Y-112439263D01*
X81611039Y-112449368D01*
X79636208Y-114424199D01*
X79623951Y-114434020D01*
X79624134Y-114434241D01*
X79618122Y-114439214D01*
X79571432Y-114488932D01*
X79570079Y-114490329D01*
X79549889Y-114510519D01*
X79549877Y-114510532D01*
X79545621Y-114516017D01*
X79541837Y-114520447D01*
X79509937Y-114554418D01*
X79509936Y-114554420D01*
X79500284Y-114571976D01*
X79489610Y-114588226D01*
X79477329Y-114604061D01*
X79477324Y-114604068D01*
X79458815Y-114646838D01*
X79456245Y-114652084D01*
X79433803Y-114692906D01*
X79428822Y-114712307D01*
X79422521Y-114730710D01*
X79414562Y-114749102D01*
X79414561Y-114749105D01*
X79407271Y-114795127D01*
X79406087Y-114800846D01*
X79394501Y-114845972D01*
X79394500Y-114845982D01*
X79394500Y-114866016D01*
X79392973Y-114885415D01*
X79389840Y-114905194D01*
X79389840Y-114905195D01*
X79394225Y-114951583D01*
X79394500Y-114957421D01*
X79394500Y-115724773D01*
X79374815Y-115791812D01*
X79341623Y-115826348D01*
X79148597Y-115961505D01*
X78981505Y-116128597D01*
X78851575Y-116314158D01*
X78796998Y-116357783D01*
X78727500Y-116364977D01*
X78665145Y-116333454D01*
X78648425Y-116314158D01*
X78518494Y-116128597D01*
X78351402Y-115961506D01*
X78351395Y-115961501D01*
X78157834Y-115825967D01*
X78157830Y-115825965D01*
X78105500Y-115801563D01*
X77943663Y-115726097D01*
X77943659Y-115726096D01*
X77943655Y-115726094D01*
X77715413Y-115664938D01*
X77715403Y-115664936D01*
X77480001Y-115644341D01*
X77479999Y-115644341D01*
X77244596Y-115664936D01*
X77244586Y-115664938D01*
X77016344Y-115726094D01*
X77016335Y-115726098D01*
X76802171Y-115825964D01*
X76802169Y-115825965D01*
X76608600Y-115961503D01*
X76486673Y-116083430D01*
X76425350Y-116116914D01*
X76355658Y-116111930D01*
X76299725Y-116070058D01*
X76282810Y-116039081D01*
X76233797Y-115907671D01*
X76233793Y-115907664D01*
X76147547Y-115792455D01*
X76147544Y-115792452D01*
X76032335Y-115706206D01*
X76032328Y-115706202D01*
X75897482Y-115655908D01*
X75897483Y-115655908D01*
X75837883Y-115649501D01*
X75837881Y-115649500D01*
X75837873Y-115649500D01*
X75837864Y-115649500D01*
X74042129Y-115649500D01*
X74042123Y-115649501D01*
X73982516Y-115655908D01*
X73847671Y-115706202D01*
X73847664Y-115706206D01*
X73732455Y-115792452D01*
X73732452Y-115792455D01*
X73646206Y-115907664D01*
X73646202Y-115907671D01*
X73595908Y-116042517D01*
X73589501Y-116102116D01*
X73589500Y-116102135D01*
X73589500Y-117897870D01*
X67215884Y-117897870D01*
X67173053Y-117760418D01*
X67172703Y-117759253D01*
X67130160Y-117611584D01*
X67128758Y-117605617D01*
X67097869Y-117437069D01*
X67073086Y-117291203D01*
X67072326Y-117284593D01*
X67060111Y-117082662D01*
X67053712Y-116968718D01*
X67053616Y-116965256D01*
X67053618Y-116928111D01*
X67054003Y-110490000D01*
X73389540Y-110490000D01*
X73409326Y-110678256D01*
X73409327Y-110678259D01*
X73467818Y-110858277D01*
X73467821Y-110858284D01*
X73562467Y-111022216D01*
X73673337Y-111145349D01*
X73689129Y-111162888D01*
X73842265Y-111274148D01*
X73842270Y-111274151D01*
X74015192Y-111351142D01*
X74015197Y-111351144D01*
X74200354Y-111390500D01*
X74200355Y-111390500D01*
X74389644Y-111390500D01*
X74389646Y-111390500D01*
X74574803Y-111351144D01*
X74747730Y-111274151D01*
X74900871Y-111162888D01*
X74908254Y-111154687D01*
X74967739Y-111118037D01*
X74996509Y-111113718D01*
X75028627Y-111112709D01*
X75047869Y-111107117D01*
X75066912Y-111103174D01*
X75086792Y-111100664D01*
X75130122Y-111083507D01*
X75135646Y-111081617D01*
X75139396Y-111080527D01*
X75180390Y-111068618D01*
X75197629Y-111058422D01*
X75215103Y-111049862D01*
X75233727Y-111042488D01*
X75233727Y-111042487D01*
X75233732Y-111042486D01*
X75271449Y-111015082D01*
X75276305Y-111011892D01*
X75316420Y-110988170D01*
X75330589Y-110973999D01*
X75345379Y-110961368D01*
X75361587Y-110949594D01*
X75391299Y-110913676D01*
X75395212Y-110909376D01*
X76407771Y-109896818D01*
X76469095Y-109863333D01*
X76495453Y-109860499D01*
X76915548Y-109860499D01*
X76982587Y-109880184D01*
X77028342Y-109932988D01*
X77038286Y-110002146D01*
X77009261Y-110065702D01*
X77003229Y-110072180D01*
X76887228Y-110188181D01*
X76825905Y-110221666D01*
X76799547Y-110224500D01*
X76740354Y-110224500D01*
X76707897Y-110231398D01*
X76555197Y-110263855D01*
X76555192Y-110263857D01*
X76382270Y-110340848D01*
X76382265Y-110340851D01*
X76229129Y-110452111D01*
X76102466Y-110592785D01*
X76007821Y-110756715D01*
X76007818Y-110756722D01*
X75956817Y-110913689D01*
X75949326Y-110936744D01*
X75929540Y-111125000D01*
X75949326Y-111313256D01*
X75949327Y-111313259D01*
X76007818Y-111493277D01*
X76007821Y-111493284D01*
X76102467Y-111657216D01*
X76229129Y-111797888D01*
X76382265Y-111909148D01*
X76382270Y-111909151D01*
X76555192Y-111986142D01*
X76555197Y-111986144D01*
X76740354Y-112025500D01*
X76740355Y-112025500D01*
X76929644Y-112025500D01*
X76929646Y-112025500D01*
X77114803Y-111986144D01*
X77287730Y-111909151D01*
X77440871Y-111797888D01*
X77567533Y-111657216D01*
X77615486Y-111574157D01*
X77666052Y-111525943D01*
X77734659Y-111512719D01*
X77799524Y-111538687D01*
X77840053Y-111595601D01*
X77846193Y-111649117D01*
X77834540Y-111760000D01*
X77854326Y-111948256D01*
X77854327Y-111948259D01*
X77912818Y-112128277D01*
X77912821Y-112128284D01*
X78007467Y-112292216D01*
X78100740Y-112395806D01*
X78134129Y-112432888D01*
X78287265Y-112544148D01*
X78287270Y-112544151D01*
X78446266Y-112614942D01*
X78499503Y-112660192D01*
X78519824Y-112727042D01*
X78513761Y-112766538D01*
X78489327Y-112841739D01*
X78489326Y-112841741D01*
X78489326Y-112841744D01*
X78469540Y-113030000D01*
X78489326Y-113218256D01*
X78489327Y-113218259D01*
X78547818Y-113398277D01*
X78547821Y-113398284D01*
X78642467Y-113562216D01*
X78769128Y-113702888D01*
X78769129Y-113702888D01*
X78922265Y-113814148D01*
X78922270Y-113814151D01*
X79095192Y-113891142D01*
X79095197Y-113891144D01*
X79280354Y-113930500D01*
X79280355Y-113930500D01*
X79469644Y-113930500D01*
X79469646Y-113930500D01*
X79654803Y-113891144D01*
X79827730Y-113814151D01*
X79980871Y-113702888D01*
X80107533Y-113562216D01*
X80202179Y-113398284D01*
X80260674Y-113218256D01*
X80278321Y-113050344D01*
X80304904Y-112985734D01*
X80313951Y-112975638D01*
X80893788Y-112395801D01*
X80906042Y-112385986D01*
X80905859Y-112385764D01*
X80911868Y-112380791D01*
X80911877Y-112380786D01*
X80958607Y-112331022D01*
X80959846Y-112329743D01*
X80980120Y-112309471D01*
X80984379Y-112303978D01*
X80988152Y-112299561D01*
X81020062Y-112265582D01*
X81029713Y-112248024D01*
X81040396Y-112231761D01*
X81052673Y-112215936D01*
X81071185Y-112173153D01*
X81073738Y-112167941D01*
X81096197Y-112127092D01*
X81101180Y-112107680D01*
X81107481Y-112089280D01*
X81115437Y-112070896D01*
X81122729Y-112024852D01*
X81123906Y-112019171D01*
X81135500Y-111974019D01*
X81135500Y-111953982D01*
X81137027Y-111934582D01*
X81140160Y-111914804D01*
X81135775Y-111868415D01*
X81135500Y-111862577D01*
X81135500Y-109913861D01*
X81155185Y-109846822D01*
X81195418Y-109809362D01*
X81195231Y-109809112D01*
X81197565Y-109807364D01*
X81200076Y-109805027D01*
X81202323Y-109803798D01*
X81202331Y-109803796D01*
X81317546Y-109717546D01*
X81403796Y-109602331D01*
X81454091Y-109467483D01*
X81460500Y-109407873D01*
X81460499Y-108412128D01*
X81454091Y-108352517D01*
X81403796Y-108217669D01*
X81403795Y-108217668D01*
X81403793Y-108217664D01*
X81317547Y-108102455D01*
X81317544Y-108102452D01*
X81202335Y-108016206D01*
X81202328Y-108016202D01*
X81067482Y-107965908D01*
X81067483Y-107965908D01*
X81007883Y-107959501D01*
X81007881Y-107959500D01*
X81007873Y-107959500D01*
X81007864Y-107959500D01*
X80012129Y-107959500D01*
X80012123Y-107959501D01*
X79952515Y-107965909D01*
X79883332Y-107991712D01*
X79813640Y-107996696D01*
X79796668Y-107991712D01*
X79727485Y-107965909D01*
X79727483Y-107965908D01*
X79667883Y-107959501D01*
X79667881Y-107959500D01*
X79667873Y-107959500D01*
X79667864Y-107959500D01*
X78672129Y-107959500D01*
X78672123Y-107959501D01*
X78612518Y-107965908D01*
X78553332Y-107987983D01*
X78483640Y-107992966D01*
X78466668Y-107987983D01*
X78407480Y-107965908D01*
X78347883Y-107959501D01*
X78347881Y-107959500D01*
X78347873Y-107959500D01*
X78347864Y-107959500D01*
X77352129Y-107959500D01*
X77352123Y-107959501D01*
X77292515Y-107965909D01*
X77223332Y-107991712D01*
X77153640Y-107996696D01*
X77136668Y-107991712D01*
X77067485Y-107965909D01*
X77067483Y-107965908D01*
X77007883Y-107959501D01*
X77007881Y-107959500D01*
X77007873Y-107959500D01*
X77007864Y-107959500D01*
X76012129Y-107959500D01*
X76012123Y-107959501D01*
X75952516Y-107965908D01*
X75817671Y-108016202D01*
X75817664Y-108016206D01*
X75702455Y-108102452D01*
X75702452Y-108102455D01*
X75616206Y-108217664D01*
X75616202Y-108217671D01*
X75565908Y-108352517D01*
X75559501Y-108412116D01*
X75559501Y-108412123D01*
X75559500Y-108412135D01*
X75559500Y-108924546D01*
X75539815Y-108991585D01*
X75523181Y-109012227D01*
X74864611Y-109670796D01*
X74803288Y-109704281D01*
X74733596Y-109699297D01*
X74726494Y-109696394D01*
X74574807Y-109628857D01*
X74574802Y-109628855D01*
X74429000Y-109597865D01*
X74389646Y-109589500D01*
X74200354Y-109589500D01*
X74167897Y-109596398D01*
X74015197Y-109628855D01*
X74015192Y-109628857D01*
X73842270Y-109705848D01*
X73842265Y-109705851D01*
X73689129Y-109817111D01*
X73562466Y-109957785D01*
X73467821Y-110121715D01*
X73467818Y-110121722D01*
X73421636Y-110263857D01*
X73409326Y-110301744D01*
X73389540Y-110490000D01*
X67054003Y-110490000D01*
X67054504Y-102109451D01*
X67074193Y-102042414D01*
X67126999Y-101996663D01*
X67196158Y-101986723D01*
X67259712Y-102015752D01*
X67292060Y-102059650D01*
X67376198Y-102251466D01*
X67499842Y-102440716D01*
X67499850Y-102440727D01*
X67652950Y-102607036D01*
X67652954Y-102607040D01*
X67831351Y-102745893D01*
X68030169Y-102853488D01*
X68030172Y-102853489D01*
X68243982Y-102926890D01*
X68243984Y-102926890D01*
X68243986Y-102926891D01*
X68466967Y-102964100D01*
X68466968Y-102964100D01*
X68693032Y-102964100D01*
X68693033Y-102964100D01*
X68916014Y-102926891D01*
X69129831Y-102853488D01*
X69328649Y-102745893D01*
X69507046Y-102607040D01*
X69660156Y-102440719D01*
X69783802Y-102251465D01*
X69874611Y-102044441D01*
X69930107Y-101825293D01*
X69944704Y-101649130D01*
X69948775Y-101600006D01*
X69948775Y-101599993D01*
X69930107Y-101374710D01*
X69930107Y-101374707D01*
X69874611Y-101155559D01*
X69783802Y-100948535D01*
X69777037Y-100938181D01*
X69660157Y-100759283D01*
X69660149Y-100759272D01*
X69507049Y-100592963D01*
X69507048Y-100592962D01*
X69507046Y-100592960D01*
X69328649Y-100454107D01*
X69328647Y-100454106D01*
X69328646Y-100454105D01*
X69328639Y-100454100D01*
X69300836Y-100439055D01*
X69251244Y-100389837D01*
X69236135Y-100321620D01*
X69260306Y-100256064D01*
X69300836Y-100220945D01*
X69328639Y-100205899D01*
X69328642Y-100205896D01*
X69328649Y-100205893D01*
X69507046Y-100067040D01*
X69660156Y-99900719D01*
X69783802Y-99711465D01*
X69874611Y-99504441D01*
X69930107Y-99285293D01*
X69948775Y-99060000D01*
X69948775Y-99059993D01*
X69930107Y-98834710D01*
X69930107Y-98834707D01*
X69874611Y-98615559D01*
X69783802Y-98408535D01*
X69660156Y-98219281D01*
X69660153Y-98219278D01*
X69660149Y-98219272D01*
X69507049Y-98052963D01*
X69507048Y-98052962D01*
X69507046Y-98052960D01*
X69328649Y-97914107D01*
X69328647Y-97914106D01*
X69328646Y-97914105D01*
X69328639Y-97914100D01*
X69300836Y-97899055D01*
X69251244Y-97849837D01*
X69236135Y-97781620D01*
X69260306Y-97716064D01*
X69300836Y-97680945D01*
X69328639Y-97665899D01*
X69328642Y-97665896D01*
X69328649Y-97665893D01*
X69507046Y-97527040D01*
X69616842Y-97407770D01*
X69660149Y-97360727D01*
X69660150Y-97360725D01*
X69660156Y-97360719D01*
X69783802Y-97171465D01*
X69874611Y-96964441D01*
X69930107Y-96745293D01*
X69937574Y-96655175D01*
X69948775Y-96520006D01*
X69948775Y-96519993D01*
X69933176Y-96331744D01*
X69930107Y-96294707D01*
X69874611Y-96075559D01*
X69783802Y-95868535D01*
X69769804Y-95847110D01*
X69660157Y-95679283D01*
X69660149Y-95679272D01*
X69507049Y-95512963D01*
X69507048Y-95512962D01*
X69507046Y-95512960D01*
X69328649Y-95374107D01*
X69328647Y-95374106D01*
X69328646Y-95374105D01*
X69328639Y-95374100D01*
X69300836Y-95359055D01*
X69251244Y-95309837D01*
X69236135Y-95241620D01*
X69260306Y-95176064D01*
X69300836Y-95140945D01*
X69328639Y-95125899D01*
X69328642Y-95125896D01*
X69328649Y-95125893D01*
X69507046Y-94987040D01*
X69660156Y-94820719D01*
X69783802Y-94631465D01*
X69874611Y-94424441D01*
X69930107Y-94205293D01*
X69941857Y-94063486D01*
X69948775Y-93980006D01*
X69948775Y-93979993D01*
X69935707Y-93822294D01*
X69930107Y-93754707D01*
X69874611Y-93535559D01*
X69783802Y-93328535D01*
X69660156Y-93139281D01*
X69660153Y-93139278D01*
X69660149Y-93139272D01*
X69507049Y-92972963D01*
X69507048Y-92972962D01*
X69507046Y-92972960D01*
X69328649Y-92834107D01*
X69328647Y-92834106D01*
X69328646Y-92834105D01*
X69328639Y-92834100D01*
X69300836Y-92819055D01*
X69251244Y-92769837D01*
X69236135Y-92701620D01*
X69260306Y-92636064D01*
X69300836Y-92600945D01*
X69328639Y-92585899D01*
X69328642Y-92585896D01*
X69328649Y-92585893D01*
X69507046Y-92447040D01*
X69660156Y-92280719D01*
X69783802Y-92091465D01*
X69874611Y-91884441D01*
X69930107Y-91665293D01*
X69937574Y-91575175D01*
X69948775Y-91440006D01*
X69948775Y-91439993D01*
X69930107Y-91214710D01*
X69930107Y-91214707D01*
X69874611Y-90995559D01*
X69783802Y-90788535D01*
X69660156Y-90599281D01*
X69660153Y-90599278D01*
X69660149Y-90599272D01*
X69507049Y-90432963D01*
X69507048Y-90432962D01*
X69507046Y-90432960D01*
X69328649Y-90294107D01*
X69328647Y-90294106D01*
X69328646Y-90294105D01*
X69328639Y-90294100D01*
X69300836Y-90279055D01*
X69251244Y-90229837D01*
X69236135Y-90161620D01*
X69260306Y-90096064D01*
X69300836Y-90060945D01*
X69328639Y-90045899D01*
X69328642Y-90045896D01*
X69328649Y-90045893D01*
X69507046Y-89907040D01*
X69660156Y-89740719D01*
X69783802Y-89551465D01*
X69874611Y-89344441D01*
X69930107Y-89125293D01*
X69948775Y-88900000D01*
X69948775Y-88899993D01*
X69930107Y-88674710D01*
X69930107Y-88674707D01*
X69874611Y-88455559D01*
X69783802Y-88248535D01*
X69660156Y-88059281D01*
X69660153Y-88059278D01*
X69660149Y-88059272D01*
X69507049Y-87892963D01*
X69507048Y-87892962D01*
X69507046Y-87892960D01*
X69328649Y-87754107D01*
X69328647Y-87754106D01*
X69328646Y-87754105D01*
X69328639Y-87754100D01*
X69300836Y-87739055D01*
X69251244Y-87689837D01*
X69236135Y-87621620D01*
X69260306Y-87556064D01*
X69300836Y-87520945D01*
X69328639Y-87505899D01*
X69328642Y-87505896D01*
X69328649Y-87505893D01*
X69507046Y-87367040D01*
X69660156Y-87200719D01*
X69783802Y-87011465D01*
X69874611Y-86804441D01*
X69930107Y-86585293D01*
X69945859Y-86395190D01*
X69948775Y-86360006D01*
X69948775Y-86359993D01*
X69930107Y-86134710D01*
X69930107Y-86134707D01*
X69874611Y-85915559D01*
X69783802Y-85708535D01*
X69660156Y-85519281D01*
X69660153Y-85519278D01*
X69660149Y-85519272D01*
X69507049Y-85352963D01*
X69507048Y-85352962D01*
X69507046Y-85352960D01*
X69328649Y-85214107D01*
X69328647Y-85214106D01*
X69328646Y-85214105D01*
X69328639Y-85214100D01*
X69300836Y-85199055D01*
X69251244Y-85149837D01*
X69236135Y-85081620D01*
X69260306Y-85016064D01*
X69300836Y-84980945D01*
X69328639Y-84965899D01*
X69328642Y-84965896D01*
X69328649Y-84965893D01*
X69507046Y-84827040D01*
X69660156Y-84660719D01*
X69783802Y-84471465D01*
X69874611Y-84264441D01*
X69930107Y-84045293D01*
X69948775Y-83820000D01*
X69948775Y-83819993D01*
X69930107Y-83594710D01*
X69930107Y-83594707D01*
X69874611Y-83375559D01*
X69783802Y-83168535D01*
X69660156Y-82979281D01*
X69660153Y-82979278D01*
X69660149Y-82979272D01*
X69507049Y-82812963D01*
X69507048Y-82812962D01*
X69507046Y-82812960D01*
X69328649Y-82674107D01*
X69328647Y-82674106D01*
X69328646Y-82674105D01*
X69328639Y-82674100D01*
X69300836Y-82659055D01*
X69251244Y-82609837D01*
X69236135Y-82541620D01*
X69260306Y-82476064D01*
X69300836Y-82440945D01*
X69328639Y-82425899D01*
X69328642Y-82425896D01*
X69328649Y-82425893D01*
X69507046Y-82287040D01*
X69660156Y-82120719D01*
X69783802Y-81931465D01*
X69874611Y-81724441D01*
X69930107Y-81505293D01*
X69948775Y-81280000D01*
X69948775Y-81279993D01*
X69930107Y-81054710D01*
X69930107Y-81054707D01*
X69874611Y-80835559D01*
X69783802Y-80628535D01*
X69660156Y-80439281D01*
X69660153Y-80439278D01*
X69660149Y-80439272D01*
X69507049Y-80272963D01*
X69507048Y-80272962D01*
X69507046Y-80272960D01*
X69328649Y-80134107D01*
X69328647Y-80134106D01*
X69328646Y-80134105D01*
X69328639Y-80134100D01*
X69300836Y-80119055D01*
X69251244Y-80069837D01*
X69236135Y-80001620D01*
X69260306Y-79936064D01*
X69300836Y-79900945D01*
X69328639Y-79885899D01*
X69328642Y-79885896D01*
X69328649Y-79885893D01*
X69507046Y-79747040D01*
X69660156Y-79580719D01*
X69783802Y-79391465D01*
X69874611Y-79184441D01*
X69930107Y-78965293D01*
X69948775Y-78740000D01*
X69948775Y-78739993D01*
X69933093Y-78550739D01*
X69930107Y-78514707D01*
X69874611Y-78295559D01*
X69783802Y-78088535D01*
X69660156Y-77899281D01*
X69660153Y-77899278D01*
X69660149Y-77899272D01*
X69507049Y-77732963D01*
X69507048Y-77732962D01*
X69507046Y-77732960D01*
X69328649Y-77594107D01*
X69328647Y-77594106D01*
X69328646Y-77594105D01*
X69328639Y-77594100D01*
X69300836Y-77579055D01*
X69251244Y-77529837D01*
X69236135Y-77461620D01*
X69260306Y-77396064D01*
X69300836Y-77360945D01*
X69328639Y-77345899D01*
X69328642Y-77345896D01*
X69328649Y-77345893D01*
X69507046Y-77207040D01*
X69660156Y-77040719D01*
X69783802Y-76851465D01*
X69874611Y-76644441D01*
X69930107Y-76425293D01*
X69944499Y-76251604D01*
X69948775Y-76200006D01*
X69948775Y-76199993D01*
X69933282Y-76013029D01*
X69930107Y-75974707D01*
X69874611Y-75755559D01*
X69783802Y-75548535D01*
X69766291Y-75521733D01*
X69660157Y-75359283D01*
X69660149Y-75359272D01*
X69507049Y-75192963D01*
X69507048Y-75192962D01*
X69507046Y-75192960D01*
X69328649Y-75054107D01*
X69328647Y-75054106D01*
X69328646Y-75054105D01*
X69328639Y-75054100D01*
X69300836Y-75039055D01*
X69251244Y-74989837D01*
X69236135Y-74921620D01*
X69260306Y-74856064D01*
X69300836Y-74820945D01*
X69328639Y-74805899D01*
X69328642Y-74805896D01*
X69328649Y-74805893D01*
X69507046Y-74667040D01*
X69660156Y-74500719D01*
X69783802Y-74311465D01*
X69874611Y-74104441D01*
X69930107Y-73885293D01*
X69948775Y-73660000D01*
X69948775Y-73659993D01*
X69930107Y-73434710D01*
X69930107Y-73434707D01*
X69874611Y-73215559D01*
X69783802Y-73008535D01*
X69759278Y-72970999D01*
X69700325Y-72880764D01*
X69660156Y-72819281D01*
X69660153Y-72819278D01*
X69660149Y-72819272D01*
X69507049Y-72652963D01*
X69507048Y-72652962D01*
X69507046Y-72652960D01*
X69328649Y-72514107D01*
X69328647Y-72514106D01*
X69328646Y-72514105D01*
X69328639Y-72514100D01*
X69300836Y-72499055D01*
X69251244Y-72449837D01*
X69236135Y-72381620D01*
X69260306Y-72316064D01*
X69300836Y-72280945D01*
X69328639Y-72265899D01*
X69328642Y-72265896D01*
X69328649Y-72265893D01*
X69507046Y-72127040D01*
X69660156Y-71960719D01*
X69783802Y-71771465D01*
X69874611Y-71564441D01*
X69930107Y-71345293D01*
X69946840Y-71143354D01*
X69948775Y-71120006D01*
X69948775Y-71119993D01*
X69934033Y-70942086D01*
X69930107Y-70894707D01*
X69874611Y-70675559D01*
X69783802Y-70468535D01*
X69660156Y-70279281D01*
X69660153Y-70279278D01*
X69660149Y-70279272D01*
X69507049Y-70112963D01*
X69507048Y-70112962D01*
X69507046Y-70112960D01*
X69328649Y-69974107D01*
X69328647Y-69974106D01*
X69328646Y-69974105D01*
X69328639Y-69974100D01*
X69300836Y-69959055D01*
X69251244Y-69909837D01*
X69236135Y-69841620D01*
X69260306Y-69776064D01*
X69300836Y-69740945D01*
X69328639Y-69725899D01*
X69328642Y-69725896D01*
X69328649Y-69725893D01*
X69507046Y-69587040D01*
X69660156Y-69420719D01*
X69783802Y-69231465D01*
X69874611Y-69024441D01*
X69930107Y-68805293D01*
X69940823Y-68675964D01*
X69948775Y-68580006D01*
X69948775Y-68579993D01*
X69930107Y-68354710D01*
X69930107Y-68354707D01*
X69874611Y-68135559D01*
X69783802Y-67928535D01*
X69660156Y-67739281D01*
X69660153Y-67739278D01*
X69660149Y-67739272D01*
X69507049Y-67572963D01*
X69507048Y-67572962D01*
X69507046Y-67572960D01*
X69328649Y-67434107D01*
X69328647Y-67434106D01*
X69328646Y-67434105D01*
X69328638Y-67434100D01*
X69300306Y-67418767D01*
X69250717Y-67369547D01*
X69235610Y-67301330D01*
X69259782Y-67235775D01*
X69300311Y-67200658D01*
X69328370Y-67185473D01*
X69328378Y-67185468D01*
X69352859Y-67166413D01*
X69352859Y-67166412D01*
X68719600Y-66533152D01*
X68724592Y-66532435D01*
X68857470Y-66471752D01*
X68967869Y-66376090D01*
X69046845Y-66253201D01*
X69069522Y-66175969D01*
X69704888Y-66811334D01*
X69783361Y-66691222D01*
X69874136Y-66484278D01*
X69929611Y-66265213D01*
X69929613Y-66265202D01*
X69948273Y-66040006D01*
X69948273Y-66039993D01*
X69929613Y-65814797D01*
X69929611Y-65814786D01*
X69874136Y-65595721D01*
X69783360Y-65388774D01*
X69704888Y-65268663D01*
X69069522Y-65904030D01*
X69046845Y-65826799D01*
X68967869Y-65703910D01*
X68857470Y-65608248D01*
X68724592Y-65547565D01*
X68719599Y-65546847D01*
X69352859Y-64913587D01*
X69352858Y-64913585D01*
X69328378Y-64894531D01*
X69328373Y-64894527D01*
X69300308Y-64879340D01*
X69250717Y-64830121D01*
X69235609Y-64761905D01*
X69259779Y-64696349D01*
X69300306Y-64661231D01*
X69328649Y-64645893D01*
X69507046Y-64507040D01*
X69660156Y-64340719D01*
X69783802Y-64151465D01*
X69874611Y-63944441D01*
X69930107Y-63725293D01*
X69940829Y-63595894D01*
X69948775Y-63500006D01*
X69948775Y-63499993D01*
X69930107Y-63274710D01*
X69930107Y-63274707D01*
X69874611Y-63055559D01*
X69783802Y-62848535D01*
X69660156Y-62659281D01*
X69660153Y-62659278D01*
X69660149Y-62659272D01*
X69507049Y-62492963D01*
X69507048Y-62492962D01*
X69507046Y-62492960D01*
X69328649Y-62354107D01*
X69328647Y-62354106D01*
X69328646Y-62354105D01*
X69328639Y-62354100D01*
X69300836Y-62339055D01*
X69251244Y-62289837D01*
X69236135Y-62221620D01*
X69260306Y-62156064D01*
X69300836Y-62120945D01*
X69328639Y-62105899D01*
X69328642Y-62105896D01*
X69328649Y-62105893D01*
X69507046Y-61967040D01*
X69660156Y-61800719D01*
X69783802Y-61611465D01*
X69874611Y-61404441D01*
X69930107Y-61185293D01*
X69948775Y-60960000D01*
X69948775Y-60959993D01*
X69930107Y-60734710D01*
X69930107Y-60734707D01*
X69874611Y-60515559D01*
X69783802Y-60308535D01*
X69660156Y-60119281D01*
X69660153Y-60119278D01*
X69660149Y-60119272D01*
X69523120Y-59970421D01*
X69492197Y-59907767D01*
X69500057Y-59838341D01*
X69544204Y-59784185D01*
X69571017Y-59770256D01*
X69571704Y-59770000D01*
X69646642Y-59742050D01*
X69685926Y-59727398D01*
X69685926Y-59727397D01*
X69685931Y-59727396D01*
X69801146Y-59641146D01*
X69887396Y-59525931D01*
X69937691Y-59391083D01*
X69944100Y-59331473D01*
X69944099Y-57508528D01*
X69937691Y-57448917D01*
X69916989Y-57393413D01*
X69887397Y-57314071D01*
X69887393Y-57314064D01*
X69801147Y-57198855D01*
X69801144Y-57198852D01*
X69685935Y-57112606D01*
X69685928Y-57112602D01*
X69551082Y-57062308D01*
X69551083Y-57062308D01*
X69491483Y-57055901D01*
X69491481Y-57055900D01*
X69491473Y-57055900D01*
X69491464Y-57055900D01*
X67668529Y-57055900D01*
X67668523Y-57055901D01*
X67608916Y-57062308D01*
X67474071Y-57112602D01*
X67474064Y-57112606D01*
X67358855Y-57198852D01*
X67280454Y-57303581D01*
X67224520Y-57345451D01*
X67154828Y-57350435D01*
X67093505Y-57316949D01*
X67060021Y-57255625D01*
X67057188Y-57229269D01*
X67057708Y-48533758D01*
X67057806Y-48530317D01*
X67064197Y-48416523D01*
X67076519Y-48212824D01*
X67077277Y-48206233D01*
X67102143Y-48059880D01*
X67133240Y-47890192D01*
X67134639Y-47884239D01*
X67167550Y-47770000D01*
X70145000Y-47770000D01*
X70870000Y-47770000D01*
X70870000Y-46995000D01*
X71370000Y-46995000D01*
X71370000Y-47770000D01*
X72094999Y-47770000D01*
X75225000Y-47770000D01*
X75950000Y-47770000D01*
X75950000Y-46995000D01*
X76450000Y-46995000D01*
X76450000Y-47770000D01*
X77174999Y-47770000D01*
X80305000Y-47770000D01*
X81030000Y-47770000D01*
X81030000Y-46995000D01*
X81530000Y-46995000D01*
X81530000Y-47770000D01*
X82254999Y-47770000D01*
X85385000Y-47770000D01*
X86110000Y-47770000D01*
X86110000Y-46995000D01*
X86610000Y-46995000D01*
X86610000Y-47770000D01*
X87334999Y-47770000D01*
X87334999Y-47683360D01*
X87334998Y-47683345D01*
X87324680Y-47582347D01*
X87270453Y-47418699D01*
X87270448Y-47418688D01*
X87179947Y-47271965D01*
X87179944Y-47271961D01*
X87058038Y-47150055D01*
X87058034Y-47150052D01*
X86911311Y-47059551D01*
X86911300Y-47059546D01*
X86747652Y-47005319D01*
X86646654Y-46995000D01*
X86610000Y-46995000D01*
X86110000Y-46995000D01*
X86073361Y-46995000D01*
X86073343Y-46995001D01*
X85972347Y-47005319D01*
X85808699Y-47059546D01*
X85808688Y-47059551D01*
X85661965Y-47150052D01*
X85661961Y-47150055D01*
X85540055Y-47271961D01*
X85540052Y-47271965D01*
X85449551Y-47418688D01*
X85449546Y-47418699D01*
X85395319Y-47582347D01*
X85385000Y-47683345D01*
X85385000Y-47770000D01*
X82254999Y-47770000D01*
X82254999Y-47683360D01*
X82254998Y-47683345D01*
X82244680Y-47582347D01*
X82190453Y-47418699D01*
X82190448Y-47418688D01*
X82099947Y-47271965D01*
X82099944Y-47271961D01*
X81978038Y-47150055D01*
X81978034Y-47150052D01*
X81831311Y-47059551D01*
X81831300Y-47059546D01*
X81667652Y-47005319D01*
X81566654Y-46995000D01*
X81530000Y-46995000D01*
X81030000Y-46995000D01*
X80993361Y-46995000D01*
X80993343Y-46995001D01*
X80892347Y-47005319D01*
X80728699Y-47059546D01*
X80728688Y-47059551D01*
X80581965Y-47150052D01*
X80581961Y-47150055D01*
X80460055Y-47271961D01*
X80460052Y-47271965D01*
X80369551Y-47418688D01*
X80369546Y-47418699D01*
X80315319Y-47582347D01*
X80305000Y-47683345D01*
X80305000Y-47770000D01*
X77174999Y-47770000D01*
X77174999Y-47683360D01*
X77174998Y-47683345D01*
X77164680Y-47582347D01*
X77110453Y-47418699D01*
X77110448Y-47418688D01*
X77019947Y-47271965D01*
X77019944Y-47271961D01*
X76898038Y-47150055D01*
X76898034Y-47150052D01*
X76751311Y-47059551D01*
X76751300Y-47059546D01*
X76587652Y-47005319D01*
X76486654Y-46995000D01*
X76450000Y-46995000D01*
X75950000Y-46995000D01*
X75913361Y-46995000D01*
X75913343Y-46995001D01*
X75812347Y-47005319D01*
X75648699Y-47059546D01*
X75648688Y-47059551D01*
X75501965Y-47150052D01*
X75501961Y-47150055D01*
X75380055Y-47271961D01*
X75380052Y-47271965D01*
X75289551Y-47418688D01*
X75289546Y-47418699D01*
X75235319Y-47582347D01*
X75225000Y-47683345D01*
X75225000Y-47770000D01*
X72094999Y-47770000D01*
X72094999Y-47683360D01*
X72094998Y-47683345D01*
X72084680Y-47582347D01*
X72030453Y-47418699D01*
X72030448Y-47418688D01*
X71939947Y-47271965D01*
X71939944Y-47271961D01*
X71818038Y-47150055D01*
X71818034Y-47150052D01*
X71671311Y-47059551D01*
X71671300Y-47059546D01*
X71507652Y-47005319D01*
X71406654Y-46995000D01*
X71370000Y-46995000D01*
X70870000Y-46995000D01*
X70833361Y-46995000D01*
X70833343Y-46995001D01*
X70732347Y-47005319D01*
X70568699Y-47059546D01*
X70568688Y-47059551D01*
X70421965Y-47150052D01*
X70421961Y-47150055D01*
X70300055Y-47271961D01*
X70300052Y-47271965D01*
X70209551Y-47418688D01*
X70209546Y-47418699D01*
X70155319Y-47582347D01*
X70145000Y-47683345D01*
X70145000Y-47770000D01*
X67167550Y-47770000D01*
X67177371Y-47735912D01*
X67177685Y-47734867D01*
X67227071Y-47576381D01*
X67228975Y-47571121D01*
X67289002Y-47426203D01*
X67289647Y-47424710D01*
X67356764Y-47275581D01*
X67359002Y-47271108D01*
X67435462Y-47132763D01*
X67436616Y-47130767D01*
X67520536Y-46991947D01*
X67522999Y-46988189D01*
X67614863Y-46858719D01*
X67616554Y-46856454D01*
X67716206Y-46729257D01*
X67718744Y-46726224D01*
X67824730Y-46607626D01*
X67827050Y-46605173D01*
X67941173Y-46491050D01*
X67943626Y-46488730D01*
X68062224Y-46382744D01*
X68065257Y-46380206D01*
X68192454Y-46280554D01*
X68194719Y-46278863D01*
X68324189Y-46186999D01*
X68327947Y-46184536D01*
X68466767Y-46100616D01*
X68468763Y-46099462D01*
X68607108Y-46023002D01*
X68611581Y-46020764D01*
X68760710Y-45953647D01*
X68762203Y-45953002D01*
X68907121Y-45892975D01*
X68912383Y-45891071D01*
X69070867Y-45841685D01*
X69071912Y-45841371D01*
X69220239Y-45798639D01*
X69226192Y-45797240D01*
X69395880Y-45766143D01*
X69542233Y-45741277D01*
X69548824Y-45740519D01*
X69752446Y-45728202D01*
X69866316Y-45721807D01*
X69869802Y-45721711D01*
X87578187Y-45733568D01*
G37*
%TD.AperFunction*%
%TA.AperFunction,Conductor*%
G36*
X68113155Y-66253201D02*
G01*
X68192131Y-66376090D01*
X68302530Y-66471752D01*
X68435408Y-66532435D01*
X68440399Y-66533152D01*
X67807139Y-67166412D01*
X67807140Y-67166413D01*
X67831622Y-67185468D01*
X67831628Y-67185472D01*
X67859690Y-67200659D01*
X67909281Y-67249878D01*
X67924389Y-67318094D01*
X67900219Y-67383650D01*
X67859694Y-67418767D01*
X67831356Y-67434103D01*
X67831353Y-67434105D01*
X67652955Y-67572959D01*
X67652950Y-67572963D01*
X67499850Y-67739272D01*
X67499842Y-67739283D01*
X67376198Y-67928533D01*
X67294096Y-68115707D01*
X67249140Y-68169193D01*
X67182404Y-68189883D01*
X67115076Y-68171208D01*
X67068533Y-68119098D01*
X67056540Y-68065893D01*
X67056631Y-66553055D01*
X67076320Y-66486017D01*
X67129126Y-66440266D01*
X67198285Y-66430326D01*
X67261839Y-66459355D01*
X67294187Y-66503253D01*
X67376639Y-66691225D01*
X67455110Y-66811334D01*
X68090477Y-66175967D01*
X68113155Y-66253201D01*
G37*
%TD.AperFunction*%
%TA.AperFunction,Conductor*%
G36*
X67261991Y-63920946D02*
G01*
X67294339Y-63964844D01*
X67376198Y-64151466D01*
X67499842Y-64340716D01*
X67499850Y-64340727D01*
X67652950Y-64507036D01*
X67652954Y-64507040D01*
X67831351Y-64645893D01*
X67831353Y-64645894D01*
X67831360Y-64645899D01*
X67859689Y-64661229D01*
X67909280Y-64710447D01*
X67924390Y-64778664D01*
X67900220Y-64844220D01*
X67859694Y-64879337D01*
X67831628Y-64894526D01*
X67831617Y-64894533D01*
X67807140Y-64913584D01*
X67807140Y-64913586D01*
X68440401Y-65546847D01*
X68435408Y-65547565D01*
X68302530Y-65608248D01*
X68192131Y-65703910D01*
X68113155Y-65826799D01*
X68090477Y-65904030D01*
X67455109Y-65268663D01*
X67376638Y-65388776D01*
X67294248Y-65576607D01*
X67249291Y-65630092D01*
X67182555Y-65650782D01*
X67115228Y-65632107D01*
X67068684Y-65579997D01*
X67056692Y-65526791D01*
X67056783Y-64014646D01*
X67076472Y-63947608D01*
X67129278Y-63901857D01*
X67198437Y-63891917D01*
X67261991Y-63920946D01*
G37*
%TD.AperFunction*%
%TD*%
M02*
