%TF.GenerationSoftware,KiCad,Pcbnew,7.0.5-0*%
%TF.CreationDate,2023-11-18T10:12:58+00:00*%
%TF.ProjectId,Meadow Feather OLED,4d656164-6f77-4204-9665-617468657220,rev?*%
%TF.SameCoordinates,Original*%
%TF.FileFunction,Soldermask,Bot*%
%TF.FilePolarity,Negative*%
%FSLAX46Y46*%
G04 Gerber Fmt 4.6, Leading zero omitted, Abs format (unit mm)*
G04 Created by KiCad (PCBNEW 7.0.5-0) date 2023-11-18 10:12:58*
%MOMM*%
%LPD*%
G01*
G04 APERTURE LIST*
%ADD10R,1.700000X1.700000*%
%ADD11O,1.700000X1.700000*%
%ADD12R,1.727200X1.727200*%
%ADD13C,1.727200*%
%ADD14C,2.500000*%
G04 APERTURE END LIST*
D10*
%TO.C,ResetSwitch1*%
X76200000Y-69850000D03*
D11*
X78740000Y-69850000D03*
X81280000Y-69850000D03*
%TD*%
D12*
%TO.C,J1*%
X68580000Y-58420000D03*
D13*
X68580000Y-60960000D03*
X68580000Y-63500000D03*
X68580000Y-66040000D03*
X68580000Y-68580000D03*
X68580000Y-71120000D03*
X68580000Y-73660000D03*
X68580000Y-76200000D03*
X68580000Y-78740000D03*
X68580000Y-81280000D03*
X68580000Y-83820000D03*
X68580000Y-86360000D03*
X68580000Y-88900000D03*
X68580000Y-91440000D03*
X68580000Y-93980000D03*
X68580000Y-96520000D03*
X68580000Y-99060000D03*
X68580000Y-101600000D03*
X88900000Y-101600000D03*
X88900000Y-99060000D03*
X88900000Y-96520000D03*
X88900000Y-93980000D03*
X88900000Y-91440000D03*
X88900000Y-88900000D03*
X88900000Y-86360000D03*
X88900000Y-83820000D03*
X88900000Y-81280000D03*
X88900000Y-78740000D03*
X88900000Y-76200000D03*
X88900000Y-73660000D03*
X88900000Y-71120000D03*
D12*
X88900000Y-68580000D03*
%TD*%
D10*
%TO.C,J2*%
X74940000Y-117000000D03*
D11*
X77480000Y-117000000D03*
X80020000Y-117000000D03*
X82560000Y-117000000D03*
%TD*%
D14*
%TO.C,H5*%
X78740000Y-87000000D03*
%TD*%
D10*
%TO.C,COM1*%
X87630000Y-60960000D03*
D11*
X87630000Y-58420000D03*
X87630000Y-55880000D03*
%TD*%
D10*
%TO.C,D5*%
X76200000Y-58420000D03*
D11*
X78740000Y-58420000D03*
X81280000Y-58420000D03*
%TD*%
M02*
