M48
; DRILL file {KiCad 7.0.5-0} date 2023 November 18, Saturday 10:13:02
; FORMAT={-:-/ absolute / inch / decimal}
; #@! TF.CreationDate,2023-11-18T10:13:02+00:00
; #@! TF.GenerationSoftware,Kicad,Pcbnew,7.0.5-0
; #@! TF.FileFunction,Plated,1,2,PTH
FMAT,2
INCH
; #@! TA.AperFunction,Plated,PTH,ViaDrill
T1C0.0157
; #@! TA.AperFunction,Plated,PTH,ComponentDrill
T2C0.0394
; #@! TA.AperFunction,Plated,PTH,ComponentDrill
T3C0.0400
%
G90
G05
T1
X2.925Y-2.625
X2.925Y-4.35
X3.025Y-4.375
X3.075Y-3.8
X3.1Y-2.575
X3.1Y-4.4
X3.125Y-4.45
X3.25Y-4.425
X3.275Y-3.8
T2
X2.9504Y-4.6063
X3.0Y-2.3
X3.0Y-2.75
X3.0504Y-4.6063
X3.1Y-2.3
X3.1Y-2.75
X3.1504Y-4.6063
X3.2Y-2.3
X3.2Y-2.75
X3.2504Y-4.6063
X3.45Y-2.2
X3.45Y-2.3
X3.45Y-2.4
T3
X2.7Y-2.3
X2.7Y-2.4
X2.7Y-2.5
X2.7Y-2.6
X2.7Y-2.7
X2.7Y-2.8
X2.7Y-2.9
X2.7Y-3.0
X2.7Y-3.1
X2.7Y-3.2
X2.7Y-3.3
X2.7Y-3.4
X2.7Y-3.5
X2.7Y-3.6
X2.7Y-3.7
X2.7Y-3.8
X2.7Y-3.9
X2.7Y-4.0
X3.5Y-2.7
X3.5Y-2.8
X3.5Y-2.9
X3.5Y-3.0
X3.5Y-3.1
X3.5Y-3.2
X3.5Y-3.3
X3.5Y-3.4
X3.5Y-3.5
X3.5Y-3.6
X3.5Y-3.7
X3.5Y-3.8
X3.5Y-3.9
X3.5Y-4.0
T0
M30
