%TF.GenerationSoftware,KiCad,Pcbnew,7.0.5-0*%
%TF.CreationDate,2023-11-18T10:12:58+00:00*%
%TF.ProjectId,Meadow Feather OLED,4d656164-6f77-4204-9665-617468657220,rev?*%
%TF.SameCoordinates,Original*%
%TF.FileFunction,Soldermask,Top*%
%TF.FilePolarity,Negative*%
%FSLAX46Y46*%
G04 Gerber Fmt 4.6, Leading zero omitted, Abs format (unit mm)*
G04 Created by KiCad (PCBNEW 7.0.5-0) date 2023-11-18 10:12:58*
%MOMM*%
%LPD*%
G01*
G04 APERTURE LIST*
G04 Aperture macros list*
%AMRoundRect*
0 Rectangle with rounded corners*
0 $1 Rounding radius*
0 $2 $3 $4 $5 $6 $7 $8 $9 X,Y pos of 4 corners*
0 Add a 4 corners polygon primitive as box body*
4,1,4,$2,$3,$4,$5,$6,$7,$8,$9,$2,$3,0*
0 Add four circle primitives for the rounded corners*
1,1,$1+$1,$2,$3*
1,1,$1+$1,$4,$5*
1,1,$1+$1,$6,$7*
1,1,$1+$1,$8,$9*
0 Add four rect primitives between the rounded corners*
20,1,$1+$1,$2,$3,$4,$5,0*
20,1,$1+$1,$4,$5,$6,$7,0*
20,1,$1+$1,$6,$7,$8,$9,0*
20,1,$1+$1,$8,$9,$2,$3,0*%
G04 Aperture macros list end*
%ADD10RoundRect,0.250000X0.350000X0.450000X-0.350000X0.450000X-0.350000X-0.450000X0.350000X-0.450000X0*%
%ADD11R,1.700000X1.700000*%
%ADD12O,1.700000X1.700000*%
%ADD13RoundRect,0.237500X-0.237500X0.287500X-0.237500X-0.287500X0.237500X-0.287500X0.237500X0.287500X0*%
%ADD14R,1.727200X1.727200*%
%ADD15C,1.727200*%
%ADD16R,0.900000X0.900000*%
%ADD17RoundRect,0.237500X-0.300000X-0.237500X0.300000X-0.237500X0.300000X0.237500X-0.300000X0.237500X0*%
%ADD18C,2.500000*%
G04 APERTURE END LIST*
D10*
%TO.C,R6*%
X82915000Y-98425000D03*
X80915000Y-98425000D03*
%TD*%
D11*
%TO.C,ResetSwitch1*%
X76200000Y-69850000D03*
D12*
X78740000Y-69850000D03*
X81280000Y-69850000D03*
%TD*%
D13*
%TO.C,D1*%
X71120000Y-48020000D03*
X71120000Y-49770000D03*
%TD*%
D14*
%TO.C,J1*%
X68580000Y-58420000D03*
D15*
X68580000Y-60960000D03*
X68580000Y-63500000D03*
X68580000Y-66040000D03*
X68580000Y-68580000D03*
X68580000Y-71120000D03*
X68580000Y-73660000D03*
X68580000Y-76200000D03*
X68580000Y-78740000D03*
X68580000Y-81280000D03*
X68580000Y-83820000D03*
X68580000Y-86360000D03*
X68580000Y-88900000D03*
X68580000Y-91440000D03*
X68580000Y-93980000D03*
X68580000Y-96520000D03*
X68580000Y-99060000D03*
X68580000Y-101600000D03*
X88900000Y-101600000D03*
X88900000Y-99060000D03*
X88900000Y-96520000D03*
X88900000Y-93980000D03*
X88900000Y-91440000D03*
X88900000Y-88900000D03*
X88900000Y-86360000D03*
X88900000Y-83820000D03*
X88900000Y-81280000D03*
X88900000Y-78740000D03*
X88900000Y-76200000D03*
X88900000Y-73660000D03*
X88900000Y-71120000D03*
D14*
X88900000Y-68580000D03*
%TD*%
D16*
%TO.C,RN1*%
X76510000Y-108910000D03*
X77850000Y-108910000D03*
X79170000Y-108910000D03*
X80510000Y-108910000D03*
X80510000Y-105910000D03*
X79170000Y-105910000D03*
X77850000Y-105910000D03*
X76510000Y-105910000D03*
%TD*%
D11*
%TO.C,J2*%
X74940000Y-117000000D03*
D12*
X77480000Y-117000000D03*
X80020000Y-117000000D03*
X82560000Y-117000000D03*
%TD*%
D17*
%TO.C,C1*%
X81052500Y-94615000D03*
X82777500Y-94615000D03*
%TD*%
D18*
%TO.C,H5*%
X78740000Y-87000000D03*
%TD*%
D13*
%TO.C,D4*%
X86360000Y-48020000D03*
X86360000Y-49770000D03*
%TD*%
D17*
%TO.C,C5*%
X74702500Y-94615000D03*
X76427500Y-94615000D03*
%TD*%
D13*
%TO.C,D3*%
X81280000Y-48020000D03*
X81280000Y-49770000D03*
%TD*%
D10*
%TO.C,R9*%
X76565000Y-98425000D03*
X74565000Y-98425000D03*
%TD*%
D11*
%TO.C,COM1*%
X87630000Y-60960000D03*
D12*
X87630000Y-58420000D03*
X87630000Y-55880000D03*
%TD*%
D13*
%TO.C,D2*%
X76200000Y-48020000D03*
X76200000Y-49770000D03*
%TD*%
D11*
%TO.C,D5*%
X76200000Y-58420000D03*
D12*
X78740000Y-58420000D03*
X81280000Y-58420000D03*
%TD*%
M02*
