%TF.GenerationSoftware,KiCad,Pcbnew,7.0.5-0*%
%TF.CreationDate,2023-11-18T10:12:58+00:00*%
%TF.ProjectId,Meadow Feather OLED,4d656164-6f77-4204-9665-617468657220,rev?*%
%TF.SameCoordinates,Original*%
%TF.FileFunction,Legend,Top*%
%TF.FilePolarity,Positive*%
%FSLAX46Y46*%
G04 Gerber Fmt 4.6, Leading zero omitted, Abs format (unit mm)*
G04 Created by KiCad (PCBNEW 7.0.5-0) date 2023-11-18 10:12:58*
%MOMM*%
%LPD*%
G01*
G04 APERTURE LIST*
%ADD10C,0.150000*%
%ADD11C,0.300000*%
%ADD12C,0.120000*%
%ADD13C,0.101600*%
G04 APERTURE END LIST*
D10*
X70354819Y-118408220D02*
X69354819Y-118408220D01*
X69354819Y-118408220D02*
X70069104Y-118074887D01*
X70069104Y-118074887D02*
X69354819Y-117741554D01*
X69354819Y-117741554D02*
X70354819Y-117741554D01*
X70307200Y-116884411D02*
X70354819Y-116979649D01*
X70354819Y-116979649D02*
X70354819Y-117170125D01*
X70354819Y-117170125D02*
X70307200Y-117265363D01*
X70307200Y-117265363D02*
X70211961Y-117312982D01*
X70211961Y-117312982D02*
X69831009Y-117312982D01*
X69831009Y-117312982D02*
X69735771Y-117265363D01*
X69735771Y-117265363D02*
X69688152Y-117170125D01*
X69688152Y-117170125D02*
X69688152Y-116979649D01*
X69688152Y-116979649D02*
X69735771Y-116884411D01*
X69735771Y-116884411D02*
X69831009Y-116836792D01*
X69831009Y-116836792D02*
X69926247Y-116836792D01*
X69926247Y-116836792D02*
X70021485Y-117312982D01*
X70354819Y-115979649D02*
X69831009Y-115979649D01*
X69831009Y-115979649D02*
X69735771Y-116027268D01*
X69735771Y-116027268D02*
X69688152Y-116122506D01*
X69688152Y-116122506D02*
X69688152Y-116312982D01*
X69688152Y-116312982D02*
X69735771Y-116408220D01*
X70307200Y-115979649D02*
X70354819Y-116074887D01*
X70354819Y-116074887D02*
X70354819Y-116312982D01*
X70354819Y-116312982D02*
X70307200Y-116408220D01*
X70307200Y-116408220D02*
X70211961Y-116455839D01*
X70211961Y-116455839D02*
X70116723Y-116455839D01*
X70116723Y-116455839D02*
X70021485Y-116408220D01*
X70021485Y-116408220D02*
X69973866Y-116312982D01*
X69973866Y-116312982D02*
X69973866Y-116074887D01*
X69973866Y-116074887D02*
X69926247Y-115979649D01*
X70354819Y-115074887D02*
X69354819Y-115074887D01*
X70307200Y-115074887D02*
X70354819Y-115170125D01*
X70354819Y-115170125D02*
X70354819Y-115360601D01*
X70354819Y-115360601D02*
X70307200Y-115455839D01*
X70307200Y-115455839D02*
X70259580Y-115503458D01*
X70259580Y-115503458D02*
X70164342Y-115551077D01*
X70164342Y-115551077D02*
X69878628Y-115551077D01*
X69878628Y-115551077D02*
X69783390Y-115503458D01*
X69783390Y-115503458D02*
X69735771Y-115455839D01*
X69735771Y-115455839D02*
X69688152Y-115360601D01*
X69688152Y-115360601D02*
X69688152Y-115170125D01*
X69688152Y-115170125D02*
X69735771Y-115074887D01*
X70354819Y-114455839D02*
X70307200Y-114551077D01*
X70307200Y-114551077D02*
X70259580Y-114598696D01*
X70259580Y-114598696D02*
X70164342Y-114646315D01*
X70164342Y-114646315D02*
X69878628Y-114646315D01*
X69878628Y-114646315D02*
X69783390Y-114598696D01*
X69783390Y-114598696D02*
X69735771Y-114551077D01*
X69735771Y-114551077D02*
X69688152Y-114455839D01*
X69688152Y-114455839D02*
X69688152Y-114312982D01*
X69688152Y-114312982D02*
X69735771Y-114217744D01*
X69735771Y-114217744D02*
X69783390Y-114170125D01*
X69783390Y-114170125D02*
X69878628Y-114122506D01*
X69878628Y-114122506D02*
X70164342Y-114122506D01*
X70164342Y-114122506D02*
X70259580Y-114170125D01*
X70259580Y-114170125D02*
X70307200Y-114217744D01*
X70307200Y-114217744D02*
X70354819Y-114312982D01*
X70354819Y-114312982D02*
X70354819Y-114455839D01*
X69688152Y-113789172D02*
X70354819Y-113598696D01*
X70354819Y-113598696D02*
X69878628Y-113408220D01*
X69878628Y-113408220D02*
X70354819Y-113217744D01*
X70354819Y-113217744D02*
X69688152Y-113027268D01*
X69354819Y-111693934D02*
X69354819Y-111503458D01*
X69354819Y-111503458D02*
X69402438Y-111408220D01*
X69402438Y-111408220D02*
X69497676Y-111312982D01*
X69497676Y-111312982D02*
X69688152Y-111265363D01*
X69688152Y-111265363D02*
X70021485Y-111265363D01*
X70021485Y-111265363D02*
X70211961Y-111312982D01*
X70211961Y-111312982D02*
X70307200Y-111408220D01*
X70307200Y-111408220D02*
X70354819Y-111503458D01*
X70354819Y-111503458D02*
X70354819Y-111693934D01*
X70354819Y-111693934D02*
X70307200Y-111789172D01*
X70307200Y-111789172D02*
X70211961Y-111884410D01*
X70211961Y-111884410D02*
X70021485Y-111932029D01*
X70021485Y-111932029D02*
X69688152Y-111932029D01*
X69688152Y-111932029D02*
X69497676Y-111884410D01*
X69497676Y-111884410D02*
X69402438Y-111789172D01*
X69402438Y-111789172D02*
X69354819Y-111693934D01*
X70354819Y-110360601D02*
X70354819Y-110836791D01*
X70354819Y-110836791D02*
X69354819Y-110836791D01*
X69831009Y-110027267D02*
X69831009Y-109693934D01*
X70354819Y-109551077D02*
X70354819Y-110027267D01*
X70354819Y-110027267D02*
X69354819Y-110027267D01*
X69354819Y-110027267D02*
X69354819Y-109551077D01*
X70354819Y-109122505D02*
X69354819Y-109122505D01*
X69354819Y-109122505D02*
X69354819Y-108884410D01*
X69354819Y-108884410D02*
X69402438Y-108741553D01*
X69402438Y-108741553D02*
X69497676Y-108646315D01*
X69497676Y-108646315D02*
X69592914Y-108598696D01*
X69592914Y-108598696D02*
X69783390Y-108551077D01*
X69783390Y-108551077D02*
X69926247Y-108551077D01*
X69926247Y-108551077D02*
X70116723Y-108598696D01*
X70116723Y-108598696D02*
X70211961Y-108646315D01*
X70211961Y-108646315D02*
X70307200Y-108741553D01*
X70307200Y-108741553D02*
X70354819Y-108884410D01*
X70354819Y-108884410D02*
X70354819Y-109122505D01*
X69688152Y-107455838D02*
X70354819Y-107217743D01*
X70354819Y-107217743D02*
X69688152Y-106979648D01*
X70354819Y-106074886D02*
X70354819Y-106646314D01*
X70354819Y-106360600D02*
X69354819Y-106360600D01*
X69354819Y-106360600D02*
X69497676Y-106455838D01*
X69497676Y-106455838D02*
X69592914Y-106551076D01*
X69592914Y-106551076D02*
X69640533Y-106646314D01*
X70259580Y-105646314D02*
X70307200Y-105598695D01*
X70307200Y-105598695D02*
X70354819Y-105646314D01*
X70354819Y-105646314D02*
X70307200Y-105693933D01*
X70307200Y-105693933D02*
X70259580Y-105646314D01*
X70259580Y-105646314D02*
X70354819Y-105646314D01*
X69354819Y-104979648D02*
X69354819Y-104884410D01*
X69354819Y-104884410D02*
X69402438Y-104789172D01*
X69402438Y-104789172D02*
X69450057Y-104741553D01*
X69450057Y-104741553D02*
X69545295Y-104693934D01*
X69545295Y-104693934D02*
X69735771Y-104646315D01*
X69735771Y-104646315D02*
X69973866Y-104646315D01*
X69973866Y-104646315D02*
X70164342Y-104693934D01*
X70164342Y-104693934D02*
X70259580Y-104741553D01*
X70259580Y-104741553D02*
X70307200Y-104789172D01*
X70307200Y-104789172D02*
X70354819Y-104884410D01*
X70354819Y-104884410D02*
X70354819Y-104979648D01*
X70354819Y-104979648D02*
X70307200Y-105074886D01*
X70307200Y-105074886D02*
X70259580Y-105122505D01*
X70259580Y-105122505D02*
X70164342Y-105170124D01*
X70164342Y-105170124D02*
X69973866Y-105217743D01*
X69973866Y-105217743D02*
X69735771Y-105217743D01*
X69735771Y-105217743D02*
X69545295Y-105170124D01*
X69545295Y-105170124D02*
X69450057Y-105122505D01*
X69450057Y-105122505D02*
X69402438Y-105074886D01*
X69402438Y-105074886D02*
X69354819Y-104979648D01*
D11*
X82874225Y-60348257D02*
X82731368Y-60276828D01*
X82731368Y-60276828D02*
X82517082Y-60276828D01*
X82517082Y-60276828D02*
X82302796Y-60348257D01*
X82302796Y-60348257D02*
X82159939Y-60491114D01*
X82159939Y-60491114D02*
X82088510Y-60633971D01*
X82088510Y-60633971D02*
X82017082Y-60919685D01*
X82017082Y-60919685D02*
X82017082Y-61133971D01*
X82017082Y-61133971D02*
X82088510Y-61419685D01*
X82088510Y-61419685D02*
X82159939Y-61562542D01*
X82159939Y-61562542D02*
X82302796Y-61705400D01*
X82302796Y-61705400D02*
X82517082Y-61776828D01*
X82517082Y-61776828D02*
X82659939Y-61776828D01*
X82659939Y-61776828D02*
X82874225Y-61705400D01*
X82874225Y-61705400D02*
X82945653Y-61633971D01*
X82945653Y-61633971D02*
X82945653Y-61133971D01*
X82945653Y-61133971D02*
X82659939Y-61133971D01*
X83588510Y-61776828D02*
X83588510Y-60276828D01*
X83588510Y-60276828D02*
X84445653Y-61776828D01*
X84445653Y-61776828D02*
X84445653Y-60276828D01*
X85159939Y-61776828D02*
X85159939Y-60276828D01*
X85159939Y-60276828D02*
X85517082Y-60276828D01*
X85517082Y-60276828D02*
X85731368Y-60348257D01*
X85731368Y-60348257D02*
X85874225Y-60491114D01*
X85874225Y-60491114D02*
X85945654Y-60633971D01*
X85945654Y-60633971D02*
X86017082Y-60919685D01*
X86017082Y-60919685D02*
X86017082Y-61133971D01*
X86017082Y-61133971D02*
X85945654Y-61419685D01*
X85945654Y-61419685D02*
X85874225Y-61562542D01*
X85874225Y-61562542D02*
X85731368Y-61705400D01*
X85731368Y-61705400D02*
X85517082Y-61776828D01*
X85517082Y-61776828D02*
X85159939Y-61776828D01*
X84033225Y-54942828D02*
X84890368Y-54942828D01*
X84461796Y-56442828D02*
X84461796Y-54942828D01*
X85247510Y-56442828D02*
X86033225Y-55442828D01*
X85247510Y-55442828D02*
X86033225Y-56442828D01*
X84723653Y-59109828D02*
X84223653Y-58395542D01*
X83866510Y-59109828D02*
X83866510Y-57609828D01*
X83866510Y-57609828D02*
X84437939Y-57609828D01*
X84437939Y-57609828D02*
X84580796Y-57681257D01*
X84580796Y-57681257D02*
X84652225Y-57752685D01*
X84652225Y-57752685D02*
X84723653Y-57895542D01*
X84723653Y-57895542D02*
X84723653Y-58109828D01*
X84723653Y-58109828D02*
X84652225Y-58252685D01*
X84652225Y-58252685D02*
X84580796Y-58324114D01*
X84580796Y-58324114D02*
X84437939Y-58395542D01*
X84437939Y-58395542D02*
X83866510Y-58395542D01*
X85223653Y-59109828D02*
X86009368Y-58109828D01*
X85223653Y-58109828D02*
X86009368Y-59109828D01*
D10*
%TO.C,R6*%
X81748333Y-100529819D02*
X81415000Y-100053628D01*
X81176905Y-100529819D02*
X81176905Y-99529819D01*
X81176905Y-99529819D02*
X81557857Y-99529819D01*
X81557857Y-99529819D02*
X81653095Y-99577438D01*
X81653095Y-99577438D02*
X81700714Y-99625057D01*
X81700714Y-99625057D02*
X81748333Y-99720295D01*
X81748333Y-99720295D02*
X81748333Y-99863152D01*
X81748333Y-99863152D02*
X81700714Y-99958390D01*
X81700714Y-99958390D02*
X81653095Y-100006009D01*
X81653095Y-100006009D02*
X81557857Y-100053628D01*
X81557857Y-100053628D02*
X81176905Y-100053628D01*
X82605476Y-99529819D02*
X82415000Y-99529819D01*
X82415000Y-99529819D02*
X82319762Y-99577438D01*
X82319762Y-99577438D02*
X82272143Y-99625057D01*
X82272143Y-99625057D02*
X82176905Y-99767914D01*
X82176905Y-99767914D02*
X82129286Y-99958390D01*
X82129286Y-99958390D02*
X82129286Y-100339342D01*
X82129286Y-100339342D02*
X82176905Y-100434580D01*
X82176905Y-100434580D02*
X82224524Y-100482200D01*
X82224524Y-100482200D02*
X82319762Y-100529819D01*
X82319762Y-100529819D02*
X82510238Y-100529819D01*
X82510238Y-100529819D02*
X82605476Y-100482200D01*
X82605476Y-100482200D02*
X82653095Y-100434580D01*
X82653095Y-100434580D02*
X82700714Y-100339342D01*
X82700714Y-100339342D02*
X82700714Y-100101247D01*
X82700714Y-100101247D02*
X82653095Y-100006009D01*
X82653095Y-100006009D02*
X82605476Y-99958390D01*
X82605476Y-99958390D02*
X82510238Y-99910771D01*
X82510238Y-99910771D02*
X82319762Y-99910771D01*
X82319762Y-99910771D02*
X82224524Y-99958390D01*
X82224524Y-99958390D02*
X82176905Y-100006009D01*
X82176905Y-100006009D02*
X82129286Y-100101247D01*
%TO.C,ResetSwitch1*%
X72209819Y-73969048D02*
X71733628Y-74302381D01*
X72209819Y-74540476D02*
X71209819Y-74540476D01*
X71209819Y-74540476D02*
X71209819Y-74159524D01*
X71209819Y-74159524D02*
X71257438Y-74064286D01*
X71257438Y-74064286D02*
X71305057Y-74016667D01*
X71305057Y-74016667D02*
X71400295Y-73969048D01*
X71400295Y-73969048D02*
X71543152Y-73969048D01*
X71543152Y-73969048D02*
X71638390Y-74016667D01*
X71638390Y-74016667D02*
X71686009Y-74064286D01*
X71686009Y-74064286D02*
X71733628Y-74159524D01*
X71733628Y-74159524D02*
X71733628Y-74540476D01*
X72162200Y-73159524D02*
X72209819Y-73254762D01*
X72209819Y-73254762D02*
X72209819Y-73445238D01*
X72209819Y-73445238D02*
X72162200Y-73540476D01*
X72162200Y-73540476D02*
X72066961Y-73588095D01*
X72066961Y-73588095D02*
X71686009Y-73588095D01*
X71686009Y-73588095D02*
X71590771Y-73540476D01*
X71590771Y-73540476D02*
X71543152Y-73445238D01*
X71543152Y-73445238D02*
X71543152Y-73254762D01*
X71543152Y-73254762D02*
X71590771Y-73159524D01*
X71590771Y-73159524D02*
X71686009Y-73111905D01*
X71686009Y-73111905D02*
X71781247Y-73111905D01*
X71781247Y-73111905D02*
X71876485Y-73588095D01*
X72162200Y-72730952D02*
X72209819Y-72635714D01*
X72209819Y-72635714D02*
X72209819Y-72445238D01*
X72209819Y-72445238D02*
X72162200Y-72350000D01*
X72162200Y-72350000D02*
X72066961Y-72302381D01*
X72066961Y-72302381D02*
X72019342Y-72302381D01*
X72019342Y-72302381D02*
X71924104Y-72350000D01*
X71924104Y-72350000D02*
X71876485Y-72445238D01*
X71876485Y-72445238D02*
X71876485Y-72588095D01*
X71876485Y-72588095D02*
X71828866Y-72683333D01*
X71828866Y-72683333D02*
X71733628Y-72730952D01*
X71733628Y-72730952D02*
X71686009Y-72730952D01*
X71686009Y-72730952D02*
X71590771Y-72683333D01*
X71590771Y-72683333D02*
X71543152Y-72588095D01*
X71543152Y-72588095D02*
X71543152Y-72445238D01*
X71543152Y-72445238D02*
X71590771Y-72350000D01*
X72162200Y-71492857D02*
X72209819Y-71588095D01*
X72209819Y-71588095D02*
X72209819Y-71778571D01*
X72209819Y-71778571D02*
X72162200Y-71873809D01*
X72162200Y-71873809D02*
X72066961Y-71921428D01*
X72066961Y-71921428D02*
X71686009Y-71921428D01*
X71686009Y-71921428D02*
X71590771Y-71873809D01*
X71590771Y-71873809D02*
X71543152Y-71778571D01*
X71543152Y-71778571D02*
X71543152Y-71588095D01*
X71543152Y-71588095D02*
X71590771Y-71492857D01*
X71590771Y-71492857D02*
X71686009Y-71445238D01*
X71686009Y-71445238D02*
X71781247Y-71445238D01*
X71781247Y-71445238D02*
X71876485Y-71921428D01*
X71543152Y-71159523D02*
X71543152Y-70778571D01*
X71209819Y-71016666D02*
X72066961Y-71016666D01*
X72066961Y-71016666D02*
X72162200Y-70969047D01*
X72162200Y-70969047D02*
X72209819Y-70873809D01*
X72209819Y-70873809D02*
X72209819Y-70778571D01*
X72162200Y-70492856D02*
X72209819Y-70349999D01*
X72209819Y-70349999D02*
X72209819Y-70111904D01*
X72209819Y-70111904D02*
X72162200Y-70016666D01*
X72162200Y-70016666D02*
X72114580Y-69969047D01*
X72114580Y-69969047D02*
X72019342Y-69921428D01*
X72019342Y-69921428D02*
X71924104Y-69921428D01*
X71924104Y-69921428D02*
X71828866Y-69969047D01*
X71828866Y-69969047D02*
X71781247Y-70016666D01*
X71781247Y-70016666D02*
X71733628Y-70111904D01*
X71733628Y-70111904D02*
X71686009Y-70302380D01*
X71686009Y-70302380D02*
X71638390Y-70397618D01*
X71638390Y-70397618D02*
X71590771Y-70445237D01*
X71590771Y-70445237D02*
X71495533Y-70492856D01*
X71495533Y-70492856D02*
X71400295Y-70492856D01*
X71400295Y-70492856D02*
X71305057Y-70445237D01*
X71305057Y-70445237D02*
X71257438Y-70397618D01*
X71257438Y-70397618D02*
X71209819Y-70302380D01*
X71209819Y-70302380D02*
X71209819Y-70064285D01*
X71209819Y-70064285D02*
X71257438Y-69921428D01*
X71543152Y-69588094D02*
X72209819Y-69397618D01*
X72209819Y-69397618D02*
X71733628Y-69207142D01*
X71733628Y-69207142D02*
X72209819Y-69016666D01*
X72209819Y-69016666D02*
X71543152Y-68826190D01*
X72209819Y-68445237D02*
X71543152Y-68445237D01*
X71209819Y-68445237D02*
X71257438Y-68492856D01*
X71257438Y-68492856D02*
X71305057Y-68445237D01*
X71305057Y-68445237D02*
X71257438Y-68397618D01*
X71257438Y-68397618D02*
X71209819Y-68445237D01*
X71209819Y-68445237D02*
X71305057Y-68445237D01*
X71543152Y-68111904D02*
X71543152Y-67730952D01*
X71209819Y-67969047D02*
X72066961Y-67969047D01*
X72066961Y-67969047D02*
X72162200Y-67921428D01*
X72162200Y-67921428D02*
X72209819Y-67826190D01*
X72209819Y-67826190D02*
X72209819Y-67730952D01*
X72162200Y-66969047D02*
X72209819Y-67064285D01*
X72209819Y-67064285D02*
X72209819Y-67254761D01*
X72209819Y-67254761D02*
X72162200Y-67349999D01*
X72162200Y-67349999D02*
X72114580Y-67397618D01*
X72114580Y-67397618D02*
X72019342Y-67445237D01*
X72019342Y-67445237D02*
X71733628Y-67445237D01*
X71733628Y-67445237D02*
X71638390Y-67397618D01*
X71638390Y-67397618D02*
X71590771Y-67349999D01*
X71590771Y-67349999D02*
X71543152Y-67254761D01*
X71543152Y-67254761D02*
X71543152Y-67064285D01*
X71543152Y-67064285D02*
X71590771Y-66969047D01*
X72209819Y-66540475D02*
X71209819Y-66540475D01*
X72209819Y-66111904D02*
X71686009Y-66111904D01*
X71686009Y-66111904D02*
X71590771Y-66159523D01*
X71590771Y-66159523D02*
X71543152Y-66254761D01*
X71543152Y-66254761D02*
X71543152Y-66397618D01*
X71543152Y-66397618D02*
X71590771Y-66492856D01*
X71590771Y-66492856D02*
X71638390Y-66540475D01*
X72209819Y-65111904D02*
X72209819Y-65683332D01*
X72209819Y-65397618D02*
X71209819Y-65397618D01*
X71209819Y-65397618D02*
X71352676Y-65492856D01*
X71352676Y-65492856D02*
X71447914Y-65588094D01*
X71447914Y-65588094D02*
X71495533Y-65683332D01*
%TO.C,D1*%
X69669819Y-49633094D02*
X68669819Y-49633094D01*
X68669819Y-49633094D02*
X68669819Y-49394999D01*
X68669819Y-49394999D02*
X68717438Y-49252142D01*
X68717438Y-49252142D02*
X68812676Y-49156904D01*
X68812676Y-49156904D02*
X68907914Y-49109285D01*
X68907914Y-49109285D02*
X69098390Y-49061666D01*
X69098390Y-49061666D02*
X69241247Y-49061666D01*
X69241247Y-49061666D02*
X69431723Y-49109285D01*
X69431723Y-49109285D02*
X69526961Y-49156904D01*
X69526961Y-49156904D02*
X69622200Y-49252142D01*
X69622200Y-49252142D02*
X69669819Y-49394999D01*
X69669819Y-49394999D02*
X69669819Y-49633094D01*
X69669819Y-48109285D02*
X69669819Y-48680713D01*
X69669819Y-48394999D02*
X68669819Y-48394999D01*
X68669819Y-48394999D02*
X68812676Y-48490237D01*
X68812676Y-48490237D02*
X68907914Y-48585475D01*
X68907914Y-48585475D02*
X68955533Y-48680713D01*
%TO.C,C1*%
X81748333Y-93544580D02*
X81700714Y-93592200D01*
X81700714Y-93592200D02*
X81557857Y-93639819D01*
X81557857Y-93639819D02*
X81462619Y-93639819D01*
X81462619Y-93639819D02*
X81319762Y-93592200D01*
X81319762Y-93592200D02*
X81224524Y-93496961D01*
X81224524Y-93496961D02*
X81176905Y-93401723D01*
X81176905Y-93401723D02*
X81129286Y-93211247D01*
X81129286Y-93211247D02*
X81129286Y-93068390D01*
X81129286Y-93068390D02*
X81176905Y-92877914D01*
X81176905Y-92877914D02*
X81224524Y-92782676D01*
X81224524Y-92782676D02*
X81319762Y-92687438D01*
X81319762Y-92687438D02*
X81462619Y-92639819D01*
X81462619Y-92639819D02*
X81557857Y-92639819D01*
X81557857Y-92639819D02*
X81700714Y-92687438D01*
X81700714Y-92687438D02*
X81748333Y-92735057D01*
X82700714Y-93639819D02*
X82129286Y-93639819D01*
X82415000Y-93639819D02*
X82415000Y-92639819D01*
X82415000Y-92639819D02*
X82319762Y-92782676D01*
X82319762Y-92782676D02*
X82224524Y-92877914D01*
X82224524Y-92877914D02*
X82129286Y-92925533D01*
%TO.C,D4*%
X84909819Y-49633094D02*
X83909819Y-49633094D01*
X83909819Y-49633094D02*
X83909819Y-49394999D01*
X83909819Y-49394999D02*
X83957438Y-49252142D01*
X83957438Y-49252142D02*
X84052676Y-49156904D01*
X84052676Y-49156904D02*
X84147914Y-49109285D01*
X84147914Y-49109285D02*
X84338390Y-49061666D01*
X84338390Y-49061666D02*
X84481247Y-49061666D01*
X84481247Y-49061666D02*
X84671723Y-49109285D01*
X84671723Y-49109285D02*
X84766961Y-49156904D01*
X84766961Y-49156904D02*
X84862200Y-49252142D01*
X84862200Y-49252142D02*
X84909819Y-49394999D01*
X84909819Y-49394999D02*
X84909819Y-49633094D01*
X84243152Y-48204523D02*
X84909819Y-48204523D01*
X83862200Y-48442618D02*
X84576485Y-48680713D01*
X84576485Y-48680713D02*
X84576485Y-48061666D01*
%TO.C,C5*%
X75398333Y-93544580D02*
X75350714Y-93592200D01*
X75350714Y-93592200D02*
X75207857Y-93639819D01*
X75207857Y-93639819D02*
X75112619Y-93639819D01*
X75112619Y-93639819D02*
X74969762Y-93592200D01*
X74969762Y-93592200D02*
X74874524Y-93496961D01*
X74874524Y-93496961D02*
X74826905Y-93401723D01*
X74826905Y-93401723D02*
X74779286Y-93211247D01*
X74779286Y-93211247D02*
X74779286Y-93068390D01*
X74779286Y-93068390D02*
X74826905Y-92877914D01*
X74826905Y-92877914D02*
X74874524Y-92782676D01*
X74874524Y-92782676D02*
X74969762Y-92687438D01*
X74969762Y-92687438D02*
X75112619Y-92639819D01*
X75112619Y-92639819D02*
X75207857Y-92639819D01*
X75207857Y-92639819D02*
X75350714Y-92687438D01*
X75350714Y-92687438D02*
X75398333Y-92735057D01*
X76303095Y-92639819D02*
X75826905Y-92639819D01*
X75826905Y-92639819D02*
X75779286Y-93116009D01*
X75779286Y-93116009D02*
X75826905Y-93068390D01*
X75826905Y-93068390D02*
X75922143Y-93020771D01*
X75922143Y-93020771D02*
X76160238Y-93020771D01*
X76160238Y-93020771D02*
X76255476Y-93068390D01*
X76255476Y-93068390D02*
X76303095Y-93116009D01*
X76303095Y-93116009D02*
X76350714Y-93211247D01*
X76350714Y-93211247D02*
X76350714Y-93449342D01*
X76350714Y-93449342D02*
X76303095Y-93544580D01*
X76303095Y-93544580D02*
X76255476Y-93592200D01*
X76255476Y-93592200D02*
X76160238Y-93639819D01*
X76160238Y-93639819D02*
X75922143Y-93639819D01*
X75922143Y-93639819D02*
X75826905Y-93592200D01*
X75826905Y-93592200D02*
X75779286Y-93544580D01*
%TO.C,D3*%
X79829819Y-49633094D02*
X78829819Y-49633094D01*
X78829819Y-49633094D02*
X78829819Y-49394999D01*
X78829819Y-49394999D02*
X78877438Y-49252142D01*
X78877438Y-49252142D02*
X78972676Y-49156904D01*
X78972676Y-49156904D02*
X79067914Y-49109285D01*
X79067914Y-49109285D02*
X79258390Y-49061666D01*
X79258390Y-49061666D02*
X79401247Y-49061666D01*
X79401247Y-49061666D02*
X79591723Y-49109285D01*
X79591723Y-49109285D02*
X79686961Y-49156904D01*
X79686961Y-49156904D02*
X79782200Y-49252142D01*
X79782200Y-49252142D02*
X79829819Y-49394999D01*
X79829819Y-49394999D02*
X79829819Y-49633094D01*
X78829819Y-48728332D02*
X78829819Y-48109285D01*
X78829819Y-48109285D02*
X79210771Y-48442618D01*
X79210771Y-48442618D02*
X79210771Y-48299761D01*
X79210771Y-48299761D02*
X79258390Y-48204523D01*
X79258390Y-48204523D02*
X79306009Y-48156904D01*
X79306009Y-48156904D02*
X79401247Y-48109285D01*
X79401247Y-48109285D02*
X79639342Y-48109285D01*
X79639342Y-48109285D02*
X79734580Y-48156904D01*
X79734580Y-48156904D02*
X79782200Y-48204523D01*
X79782200Y-48204523D02*
X79829819Y-48299761D01*
X79829819Y-48299761D02*
X79829819Y-48585475D01*
X79829819Y-48585475D02*
X79782200Y-48680713D01*
X79782200Y-48680713D02*
X79734580Y-48728332D01*
%TO.C,R9*%
X75398333Y-100529819D02*
X75065000Y-100053628D01*
X74826905Y-100529819D02*
X74826905Y-99529819D01*
X74826905Y-99529819D02*
X75207857Y-99529819D01*
X75207857Y-99529819D02*
X75303095Y-99577438D01*
X75303095Y-99577438D02*
X75350714Y-99625057D01*
X75350714Y-99625057D02*
X75398333Y-99720295D01*
X75398333Y-99720295D02*
X75398333Y-99863152D01*
X75398333Y-99863152D02*
X75350714Y-99958390D01*
X75350714Y-99958390D02*
X75303095Y-100006009D01*
X75303095Y-100006009D02*
X75207857Y-100053628D01*
X75207857Y-100053628D02*
X74826905Y-100053628D01*
X75874524Y-100529819D02*
X76065000Y-100529819D01*
X76065000Y-100529819D02*
X76160238Y-100482200D01*
X76160238Y-100482200D02*
X76207857Y-100434580D01*
X76207857Y-100434580D02*
X76303095Y-100291723D01*
X76303095Y-100291723D02*
X76350714Y-100101247D01*
X76350714Y-100101247D02*
X76350714Y-99720295D01*
X76350714Y-99720295D02*
X76303095Y-99625057D01*
X76303095Y-99625057D02*
X76255476Y-99577438D01*
X76255476Y-99577438D02*
X76160238Y-99529819D01*
X76160238Y-99529819D02*
X75969762Y-99529819D01*
X75969762Y-99529819D02*
X75874524Y-99577438D01*
X75874524Y-99577438D02*
X75826905Y-99625057D01*
X75826905Y-99625057D02*
X75779286Y-99720295D01*
X75779286Y-99720295D02*
X75779286Y-99958390D01*
X75779286Y-99958390D02*
X75826905Y-100053628D01*
X75826905Y-100053628D02*
X75874524Y-100101247D01*
X75874524Y-100101247D02*
X75969762Y-100148866D01*
X75969762Y-100148866D02*
X76160238Y-100148866D01*
X76160238Y-100148866D02*
X76255476Y-100101247D01*
X76255476Y-100101247D02*
X76303095Y-100053628D01*
X76303095Y-100053628D02*
X76350714Y-99958390D01*
%TO.C,COM1*%
X86368095Y-65129580D02*
X86320476Y-65177200D01*
X86320476Y-65177200D02*
X86177619Y-65224819D01*
X86177619Y-65224819D02*
X86082381Y-65224819D01*
X86082381Y-65224819D02*
X85939524Y-65177200D01*
X85939524Y-65177200D02*
X85844286Y-65081961D01*
X85844286Y-65081961D02*
X85796667Y-64986723D01*
X85796667Y-64986723D02*
X85749048Y-64796247D01*
X85749048Y-64796247D02*
X85749048Y-64653390D01*
X85749048Y-64653390D02*
X85796667Y-64462914D01*
X85796667Y-64462914D02*
X85844286Y-64367676D01*
X85844286Y-64367676D02*
X85939524Y-64272438D01*
X85939524Y-64272438D02*
X86082381Y-64224819D01*
X86082381Y-64224819D02*
X86177619Y-64224819D01*
X86177619Y-64224819D02*
X86320476Y-64272438D01*
X86320476Y-64272438D02*
X86368095Y-64320057D01*
X86987143Y-64224819D02*
X87177619Y-64224819D01*
X87177619Y-64224819D02*
X87272857Y-64272438D01*
X87272857Y-64272438D02*
X87368095Y-64367676D01*
X87368095Y-64367676D02*
X87415714Y-64558152D01*
X87415714Y-64558152D02*
X87415714Y-64891485D01*
X87415714Y-64891485D02*
X87368095Y-65081961D01*
X87368095Y-65081961D02*
X87272857Y-65177200D01*
X87272857Y-65177200D02*
X87177619Y-65224819D01*
X87177619Y-65224819D02*
X86987143Y-65224819D01*
X86987143Y-65224819D02*
X86891905Y-65177200D01*
X86891905Y-65177200D02*
X86796667Y-65081961D01*
X86796667Y-65081961D02*
X86749048Y-64891485D01*
X86749048Y-64891485D02*
X86749048Y-64558152D01*
X86749048Y-64558152D02*
X86796667Y-64367676D01*
X86796667Y-64367676D02*
X86891905Y-64272438D01*
X86891905Y-64272438D02*
X86987143Y-64224819D01*
X87844286Y-65224819D02*
X87844286Y-64224819D01*
X87844286Y-64224819D02*
X88177619Y-64939104D01*
X88177619Y-64939104D02*
X88510952Y-64224819D01*
X88510952Y-64224819D02*
X88510952Y-65224819D01*
X89510952Y-65224819D02*
X88939524Y-65224819D01*
X89225238Y-65224819D02*
X89225238Y-64224819D01*
X89225238Y-64224819D02*
X89130000Y-64367676D01*
X89130000Y-64367676D02*
X89034762Y-64462914D01*
X89034762Y-64462914D02*
X88939524Y-64510533D01*
%TO.C,D2*%
X74749819Y-49633094D02*
X73749819Y-49633094D01*
X73749819Y-49633094D02*
X73749819Y-49394999D01*
X73749819Y-49394999D02*
X73797438Y-49252142D01*
X73797438Y-49252142D02*
X73892676Y-49156904D01*
X73892676Y-49156904D02*
X73987914Y-49109285D01*
X73987914Y-49109285D02*
X74178390Y-49061666D01*
X74178390Y-49061666D02*
X74321247Y-49061666D01*
X74321247Y-49061666D02*
X74511723Y-49109285D01*
X74511723Y-49109285D02*
X74606961Y-49156904D01*
X74606961Y-49156904D02*
X74702200Y-49252142D01*
X74702200Y-49252142D02*
X74749819Y-49394999D01*
X74749819Y-49394999D02*
X74749819Y-49633094D01*
X73845057Y-48680713D02*
X73797438Y-48633094D01*
X73797438Y-48633094D02*
X73749819Y-48537856D01*
X73749819Y-48537856D02*
X73749819Y-48299761D01*
X73749819Y-48299761D02*
X73797438Y-48204523D01*
X73797438Y-48204523D02*
X73845057Y-48156904D01*
X73845057Y-48156904D02*
X73940295Y-48109285D01*
X73940295Y-48109285D02*
X74035533Y-48109285D01*
X74035533Y-48109285D02*
X74178390Y-48156904D01*
X74178390Y-48156904D02*
X74749819Y-48728332D01*
X74749819Y-48728332D02*
X74749819Y-48109285D01*
D12*
%TO.C,R6*%
X82142064Y-99160000D02*
X81687936Y-99160000D01*
X82142064Y-97690000D02*
X81687936Y-97690000D01*
%TO.C,ResetSwitch1*%
X74870000Y-71180000D02*
X74870000Y-69850000D01*
X76200000Y-71180000D02*
X74870000Y-71180000D01*
X77470000Y-71180000D02*
X82610000Y-71180000D01*
X77470000Y-71180000D02*
X77470000Y-68520000D01*
X82610000Y-71180000D02*
X82610000Y-68520000D01*
X77470000Y-68520000D02*
X82610000Y-68520000D01*
%TO.C,D1*%
X71855000Y-47235000D02*
X70385000Y-47235000D01*
X70385000Y-47235000D02*
X70385000Y-49695000D01*
X71855000Y-49695000D02*
X71855000Y-47235000D01*
D13*
%TO.C,J1*%
X67310000Y-48387000D02*
X67310000Y-116967000D01*
X67310000Y-57150000D02*
X67310000Y-102870000D01*
X67310000Y-102870000D02*
X69850000Y-102870000D01*
X69850000Y-57150000D02*
X67310000Y-57150000D01*
X69850000Y-102870000D02*
X69850000Y-57150000D01*
X69850000Y-119507000D02*
X87630000Y-119507000D01*
X87630000Y-45847000D02*
X69850000Y-45847000D01*
X87630000Y-67310000D02*
X87630000Y-102870000D01*
X87630000Y-102870000D02*
X90170000Y-102870000D01*
X90170000Y-67310000D02*
X87630000Y-67310000D01*
X90170000Y-102870000D02*
X90170000Y-67310000D01*
X90170000Y-116967000D02*
X90170000Y-48387000D01*
X69850000Y-45847000D02*
G75*
G03*
X67310000Y-48387000I0J-2540000D01*
G01*
X67310000Y-116967000D02*
G75*
G03*
X69850000Y-119507000I2540000J0D01*
G01*
X90170000Y-48387000D02*
G75*
G03*
X87630000Y-45847000I-2540000J0D01*
G01*
X87630000Y-119507000D02*
G75*
G03*
X90170000Y-116967000I0J2540000D01*
G01*
D12*
%TO.C,RN1*%
X75840000Y-106360000D02*
X75840000Y-108460000D01*
X81180000Y-106360000D02*
X81180000Y-108460000D01*
%TO.C,J2*%
X73610000Y-118330000D02*
X73610000Y-117000000D01*
X74940000Y-118330000D02*
X73610000Y-118330000D01*
X76210000Y-118330000D02*
X83890000Y-118330000D01*
X76210000Y-118330000D02*
X76210000Y-115670000D01*
X83890000Y-118330000D02*
X83890000Y-115670000D01*
X76210000Y-115670000D02*
X83890000Y-115670000D01*
%TO.C,C1*%
X81768733Y-94105000D02*
X82061267Y-94105000D01*
X81768733Y-95125000D02*
X82061267Y-95125000D01*
%TO.C,D4*%
X87095000Y-47235000D02*
X85625000Y-47235000D01*
X85625000Y-47235000D02*
X85625000Y-49695000D01*
X87095000Y-49695000D02*
X87095000Y-47235000D01*
%TO.C,C5*%
X75418733Y-94105000D02*
X75711267Y-94105000D01*
X75418733Y-95125000D02*
X75711267Y-95125000D01*
%TO.C,D3*%
X82015000Y-47235000D02*
X80545000Y-47235000D01*
X80545000Y-47235000D02*
X80545000Y-49695000D01*
X82015000Y-49695000D02*
X82015000Y-47235000D01*
%TO.C,R9*%
X75792064Y-99160000D02*
X75337936Y-99160000D01*
X75792064Y-97690000D02*
X75337936Y-97690000D01*
%TO.C,COM1*%
X88960000Y-62290000D02*
X87630000Y-62290000D01*
X88960000Y-60960000D02*
X88960000Y-62290000D01*
X88960000Y-59690000D02*
X88960000Y-54550000D01*
X88960000Y-59690000D02*
X86300000Y-59690000D01*
X88960000Y-54550000D02*
X86300000Y-54550000D01*
X86300000Y-59690000D02*
X86300000Y-54550000D01*
%TO.C,D2*%
X76935000Y-47235000D02*
X75465000Y-47235000D01*
X75465000Y-47235000D02*
X75465000Y-49695000D01*
X76935000Y-49695000D02*
X76935000Y-47235000D01*
%TO.C,D5*%
X74870000Y-59750000D02*
X74870000Y-58420000D01*
X76200000Y-59750000D02*
X74870000Y-59750000D01*
X77470000Y-59750000D02*
X82610000Y-59750000D01*
X77470000Y-59750000D02*
X77470000Y-57090000D01*
X82610000Y-59750000D02*
X82610000Y-57090000D01*
X77470000Y-57090000D02*
X82610000Y-57090000D01*
%TD*%
M02*
